<svg width="24" height="24" viewBox="0 0 24 24" fill="none" xmlns="http://www.w3.org/2000/svg">
<g clip-path="url(#clip0_3051_13332)">
<rect x="23.6016" width="24" height="23.6" rx="6" transform="rotate(90 23.6016 0)" fill="white"/>
<path d="M11.0352 8.15625C11.0352 8.35931 11.1158 8.55405 11.2594 8.69763C11.403 8.84121 11.5977 8.92188 11.8008 8.92188C12.0038 8.92188 12.1986 8.84121 12.3422 8.69763C12.4857 8.55405 12.5664 8.35931 12.5664 8.15625C12.5664 7.95319 12.4857 7.75845 12.3422 7.61487C12.1986 7.47129 12.0038 7.39063 11.8008 7.39062C11.5977 7.39062 11.403 7.47129 11.2594 7.61487C11.1158 7.75845 11.0352 7.95319 11.0352 8.15625ZM11.0352 11.9844C11.0352 12.1874 11.1158 12.3822 11.2594 12.5258C11.403 12.6693 11.5977 12.75 11.8008 12.75C12.0038 12.75 12.1986 12.6693 12.3422 12.5258C12.4857 12.3822 12.5664 12.1874 12.5664 11.9844C12.5664 11.7813 12.4857 11.5866 12.3422 11.443C12.1986 11.2994 12.0038 11.2188 11.8008 11.2188C11.5977 11.2188 11.403 11.2994 11.2594 11.443C11.1158 11.5866 11.0352 11.7813 11.0352 11.9844ZM11.0352 15.8125C11.0352 16.0156 11.1158 16.2103 11.2594 16.3539C11.403 16.4975 11.5977 16.5781 11.8008 16.5781C12.0038 16.5781 12.1986 16.4975 12.3422 16.3539C12.4857 16.2103 12.5664 16.0156 12.5664 15.8125C12.5664 15.6094 12.4857 15.4147 12.3422 15.2711C12.1986 15.1275 12.0038 15.0469 11.8008 15.0469C11.5977 15.0469 11.403 15.1275 11.2594 15.2711C11.1158 15.4147 11.0352 15.6094 11.0352 15.8125Z" fill="#333333"/>
<path d="M11.0352 8.15625C11.0352 8.35931 11.1158 8.55405 11.2594 8.69763C11.403 8.84121 11.5977 8.92188 11.8008 8.92188C12.0038 8.92188 12.1986 8.84121 12.3422 8.69763C12.4857 8.55405 12.5664 8.35931 12.5664 8.15625C12.5664 7.95319 12.4857 7.75845 12.3422 7.61487C12.1986 7.47129 12.0038 7.39063 11.8008 7.39062C11.5977 7.39062 11.403 7.47129 11.2594 7.61487C11.1158 7.75845 11.0352 7.95319 11.0352 8.15625ZM11.0352 11.9844C11.0352 12.1874 11.1158 12.3822 11.2594 12.5258C11.403 12.6693 11.5977 12.75 11.8008 12.75C12.0038 12.75 12.1986 12.6693 12.3422 12.5258C12.4857 12.3822 12.5664 12.1874 12.5664 11.9844C12.5664 11.7813 12.4857 11.5866 12.3422 11.443C12.1986 11.2994 12.0038 11.2188 11.8008 11.2188C11.5977 11.2188 11.403 11.2994 11.2594 11.443C11.1158 11.5866 11.0352 11.7813 11.0352 11.9844ZM11.0352 15.8125C11.0352 16.0156 11.1158 16.2103 11.2594 16.3539C11.403 16.4975 11.5977 16.5781 11.8008 16.5781C12.0038 16.5781 12.1986 16.4975 12.3422 16.3539C12.4857 16.2103 12.5664 16.0156 12.5664 15.8125C12.5664 15.6094 12.4857 15.4147 12.3422 15.2711C12.1986 15.1275 12.0038 15.0469 11.8008 15.0469C11.5977 15.0469 11.403 15.1275 11.2594 15.2711C11.1158 15.4147 11.0352 15.6094 11.0352 15.8125Z" fill="white" fill-opacity="0.4"/>
</g>
<rect x="23.3016" y="0.3" width="23.4" height="23" rx="5.7" transform="rotate(90 23.3016 0.3)" stroke="#7F7F7F" stroke-width="0.6"/>
<defs>
<clipPath id="clip0_3051_13332">
<rect x="23.6016" width="24" height="23.6" rx="6" transform="rotate(90 23.6016 0)" fill="white"/>
</clipPath>
</defs>
</svg>
