<svg width="81" height="81" viewBox="0 0 81 81" fill="none" xmlns="http://www.w3.org/2000/svg">
<rect x="8.22656" y="8.13477" width="64.6562" height="64.6562" rx="32.3281" fill="#D1FADF"/>
<rect x="8.22656" y="8.13477" width="64.6562" height="64.6562" rx="32.3281" stroke="#ECFDF3" stroke-width="15.2132"/>
<path d="M55.5014 39.2846V40.5967C55.4996 43.6723 54.5037 46.6649 52.6622 49.1283C50.8207 51.5916 48.2322 53.3937 45.2829 54.2657C42.3335 55.1377 39.1813 55.033 36.2963 53.9672C33.4113 52.9013 30.9482 50.9314 29.2742 48.3513C27.6002 45.7712 26.8051 42.7191 27.0075 39.6502C27.2098 36.5813 28.3988 33.66 30.3971 31.322C32.3954 28.984 35.0958 27.3546 38.0958 26.6768C41.0958 25.999 44.2345 26.3091 47.0438 27.5609M55.5014 29.1868L41.239 43.4635L36.9603 39.1848" stroke="#039855" stroke-width="3.80331" stroke-linecap="round" stroke-linejoin="round"/>
</svg>
