<svg width="20" height="20" viewBox="0 0 20 20" fill="none" xmlns="http://www.w3.org/2000/svg">
<path d="M10.002 4.54492C11.0617 4.54503 12.0777 4.96647 12.8271 5.71582C13.5767 6.46534 13.998 7.48201 13.998 8.54199V13.333C13.998 13.7226 14.2805 14.0554 14.665 14.1182C14.771 14.1354 14.8677 14.19 14.9365 14.2725C15.0053 14.355 15.0421 14.46 15.04 14.5674C15.0399 14.5763 15.0399 14.5858 15.04 14.5947C15.0415 14.7031 15.0039 14.8083 14.9346 14.8916C14.875 14.963 14.795 15.0135 14.7061 15.0381H5.29785C5.20864 15.0136 5.12806 14.9632 5.06836 14.8916C5.01632 14.829 4.98182 14.7542 4.96875 14.6748L4.96289 14.5947V14.5674C4.96083 14.46 4.99763 14.355 5.06641 14.2725C5.13523 14.19 5.23185 14.1354 5.33789 14.1182C5.72247 14.0554 6.00488 13.7227 6.00488 13.333V8.54199C6.00488 7.48201 6.42626 6.46534 7.17578 5.71582C7.87854 5.01309 8.81577 4.59873 9.80371 4.5498L10.002 4.54492Z" stroke="#787C82" stroke-width="1.59" stroke-linecap="round" stroke-linejoin="round"/>
<path d="M8.33203 17.5H11.6654" stroke="#787C82" stroke-width="1.59" stroke-linecap="round" stroke-linejoin="round"/>
<mask id="path-3-inside-1_2164_90547" fill="white">
<path d="M10.6807 3.80833C10.778 3.669 10.8303 3.50326 10.8307 3.33333C10.8307 3.11232 10.7429 2.90036 10.5867 2.74408C10.4304 2.5878 10.2184 2.5 9.9974 2.5C9.77638 2.5 9.56442 2.5878 9.40814 2.74408C9.25186 2.90036 9.16406 3.11232 9.16406 3.33333C9.16446 3.50326 9.2168 3.669 9.31406 3.80833"/>
</mask>
<path d="M9.37693 2.89827C8.87432 3.61834 9.0506 4.60951 9.77066 5.11213C10.4907 5.61474 11.4819 5.43846 11.9845 4.7184L9.37693 2.89827ZM10.8307 3.33333L12.4207 3.3371V3.33333H10.8307ZM9.9974 2.5L9.9974 0.91L9.9974 2.5ZM9.16406 3.33333L7.57406 3.33333L7.57407 3.3371L9.16406 3.33333ZM8.01027 4.7184C8.51288 5.43846 9.50406 5.61474 10.2241 5.11213C10.9442 4.60951 11.1205 3.61834 10.6179 2.89827L8.01027 4.7184ZM10.6807 3.80833L11.9845 4.7184C12.2674 4.31321 12.4196 3.83124 12.4207 3.3371L10.8307 3.33333L9.24073 3.32957C9.2411 3.17528 9.28862 3.02479 9.37693 2.89827L10.6807 3.80833ZM10.8307 3.33333H12.4207C12.4207 2.69062 12.1654 2.07424 11.711 1.61978L10.5867 2.74408L9.46235 3.86838C9.32045 3.72648 9.24073 3.53401 9.24073 3.33333H10.8307ZM10.5867 2.74408L11.711 1.61978C11.2565 1.16531 10.6401 0.91 9.9974 0.91L9.9974 2.5L9.9974 4.09C9.79671 4.09 9.60425 4.01028 9.46235 3.86838L10.5867 2.74408ZM9.9974 2.5L9.9974 0.91C9.35469 0.91 8.7383 1.16531 8.28384 1.61978L9.40814 2.74408L10.5324 3.86838C10.3905 4.01028 10.1981 4.09 9.9974 4.09L9.9974 2.5ZM9.40814 2.74408L8.28384 1.61978C7.82938 2.07424 7.57406 2.69062 7.57406 3.33333H9.16406H10.7541C10.7541 3.53401 10.6743 3.72648 10.5324 3.86838L9.40814 2.74408ZM9.16406 3.33333L7.57407 3.3371C7.57524 3.83124 7.72744 4.31321 8.01027 4.7184L9.31406 3.80833L10.6179 2.89827C10.7062 3.02479 10.7537 3.17528 10.7541 3.32957L9.16406 3.33333Z" fill="#787C82" mask="url(#path-3-inside-1_2164_90547)"/>
</svg>
