<svg width="24" height="25" viewBox="0 0 24 25" fill="none" xmlns="http://www.w3.org/2000/svg">
<path d="M18.6417 3.07129C19.3806 3.07129 20.0891 3.36478 20.6115 3.88721C21.134 4.40963 21.4275 5.11819 21.4275 5.857V19.1427C21.4275 19.8815 21.134 20.5901 20.6115 21.1125C20.0891 21.6349 19.3806 21.9284 18.6417 21.9284H5.35603C4.61721 21.9284 3.90865 21.6349 3.38623 21.1125C2.86381 20.5901 2.57031 19.8815 2.57031 19.1427V5.857C2.57031 5.11819 2.86381 4.40963 3.38623 3.88721C3.90865 3.36478 4.61721 3.07129 5.35603 3.07129H18.6417ZM20.1417 8.64529H3.85603V19.1427C3.85603 19.9707 4.52803 20.6427 5.35603 20.6427H18.6417C19.0396 20.6427 19.4211 20.4847 19.7024 20.2034C19.9837 19.9221 20.1417 19.5405 20.1417 19.1427V8.64529ZM7.49803 15.5007C7.78219 15.5007 8.05471 15.6136 8.25564 15.8145C8.45657 16.0155 8.56946 16.288 8.56946 16.5721C8.56946 16.8563 8.45657 17.1288 8.25564 17.3298C8.05471 17.5307 7.78219 17.6436 7.49803 17.6436C7.21387 17.6436 6.94134 17.5307 6.74041 17.3298C6.53948 17.1288 6.4266 16.8563 6.4266 16.5721C6.4266 16.288 6.53948 16.0155 6.74041 15.8145C6.94134 15.6136 7.21387 15.5007 7.49803 15.5007ZM12.0015 15.5007C12.2856 15.5007 12.5581 15.6136 12.7591 15.8145C12.96 16.0155 13.0729 16.288 13.0729 16.5721C13.0729 16.8563 12.96 17.1288 12.7591 17.3298C12.5581 17.5307 12.2856 17.6436 12.0015 17.6436C11.7173 17.6436 11.4448 17.5307 11.2438 17.3298C11.0429 17.1288 10.93 16.8563 10.93 16.5721C10.93 16.288 11.0429 16.0155 11.2438 15.8145C11.4448 15.6136 11.7173 15.5007 12.0015 15.5007ZM7.49803 11.215C7.78219 11.215 8.05471 11.3279 8.25564 11.5288C8.45657 11.7297 8.56946 12.0023 8.56946 12.2864C8.56946 12.5706 8.45657 12.8431 8.25564 13.044C8.05471 13.245 7.78219 13.3579 7.49803 13.3579C7.21387 13.3579 6.94134 13.245 6.74041 13.044C6.53948 12.8431 6.4266 12.5706 6.4266 12.2864C6.4266 12.0023 6.53948 11.7297 6.74041 11.5288C6.94134 11.3279 7.21387 11.215 7.49803 11.215ZM12.0015 11.215C12.2856 11.215 12.5581 11.3279 12.7591 11.5288C12.96 11.7297 13.0729 12.0023 13.0729 12.2864C13.0729 12.5706 12.96 12.8431 12.7591 13.044C12.5581 13.245 12.2856 13.3579 12.0015 13.3579C11.7173 13.3579 11.4448 13.245 11.2438 13.044C11.0429 12.8431 10.93 12.5706 10.93 12.2864C10.93 12.0023 11.0429 11.7297 11.2438 11.5288C11.4448 11.3279 11.7173 11.215 12.0015 11.215ZM16.5057 11.215C16.7899 11.215 17.0624 11.3279 17.2634 11.5288C17.4643 11.7297 17.5772 12.0023 17.5772 12.2864C17.5772 12.5706 17.4643 12.8431 17.2634 13.044C17.0624 13.245 16.7899 13.3579 16.5057 13.3579C16.2216 13.3579 15.9491 13.245 15.7481 13.044C15.5472 12.8431 15.4343 12.5706 15.4343 12.2864C15.4343 12.0023 15.5472 11.7297 15.7481 11.5288C15.9491 11.3279 16.2216 11.215 16.5057 11.215ZM18.6417 4.357H5.35603C4.9582 4.357 4.57667 4.51504 4.29537 4.79634C4.01406 5.07765 3.85603 5.45918 3.85603 5.857V7.35958H20.1417V5.857C20.1417 5.45918 19.9837 5.07765 19.7024 4.79634C19.4211 4.51504 19.0396 4.357 18.6417 4.357Z" fill="#333333"/>
<path d="M18.6417 3.07129C19.3806 3.07129 20.0891 3.36478 20.6115 3.88721C21.134 4.40963 21.4275 5.11819 21.4275 5.857V19.1427C21.4275 19.8815 21.134 20.5901 20.6115 21.1125C20.0891 21.6349 19.3806 21.9284 18.6417 21.9284H5.35603C4.61721 21.9284 3.90865 21.6349 3.38623 21.1125C2.86381 20.5901 2.57031 19.8815 2.57031 19.1427V5.857C2.57031 5.11819 2.86381 4.40963 3.38623 3.88721C3.90865 3.36478 4.61721 3.07129 5.35603 3.07129H18.6417ZM20.1417 8.64529H3.85603V19.1427C3.85603 19.9707 4.52803 20.6427 5.35603 20.6427H18.6417C19.0396 20.6427 19.4211 20.4847 19.7024 20.2034C19.9837 19.9221 20.1417 19.5405 20.1417 19.1427V8.64529ZM7.49803 15.5007C7.78219 15.5007 8.05471 15.6136 8.25564 15.8145C8.45657 16.0155 8.56946 16.288 8.56946 16.5721C8.56946 16.8563 8.45657 17.1288 8.25564 17.3298C8.05471 17.5307 7.78219 17.6436 7.49803 17.6436C7.21387 17.6436 6.94134 17.5307 6.74041 17.3298C6.53948 17.1288 6.4266 16.8563 6.4266 16.5721C6.4266 16.288 6.53948 16.0155 6.74041 15.8145C6.94134 15.6136 7.21387 15.5007 7.49803 15.5007ZM12.0015 15.5007C12.2856 15.5007 12.5581 15.6136 12.7591 15.8145C12.96 16.0155 13.0729 16.288 13.0729 16.5721C13.0729 16.8563 12.96 17.1288 12.7591 17.3298C12.5581 17.5307 12.2856 17.6436 12.0015 17.6436C11.7173 17.6436 11.4448 17.5307 11.2438 17.3298C11.0429 17.1288 10.93 16.8563 10.93 16.5721C10.93 16.288 11.0429 16.0155 11.2438 15.8145C11.4448 15.6136 11.7173 15.5007 12.0015 15.5007ZM7.49803 11.215C7.78219 11.215 8.05471 11.3279 8.25564 11.5288C8.45657 11.7297 8.56946 12.0023 8.56946 12.2864C8.56946 12.5706 8.45657 12.8431 8.25564 13.044C8.05471 13.245 7.78219 13.3579 7.49803 13.3579C7.21387 13.3579 6.94134 13.245 6.74041 13.044C6.53948 12.8431 6.4266 12.5706 6.4266 12.2864C6.4266 12.0023 6.53948 11.7297 6.74041 11.5288C6.94134 11.3279 7.21387 11.215 7.49803 11.215ZM12.0015 11.215C12.2856 11.215 12.5581 11.3279 12.7591 11.5288C12.96 11.7297 13.0729 12.0023 13.0729 12.2864C13.0729 12.5706 12.96 12.8431 12.7591 13.044C12.5581 13.245 12.2856 13.3579 12.0015 13.3579C11.7173 13.3579 11.4448 13.245 11.2438 13.044C11.0429 12.8431 10.93 12.5706 10.93 12.2864C10.93 12.0023 11.0429 11.7297 11.2438 11.5288C11.4448 11.3279 11.7173 11.215 12.0015 11.215ZM16.5057 11.215C16.7899 11.215 17.0624 11.3279 17.2634 11.5288C17.4643 11.7297 17.5772 12.0023 17.5772 12.2864C17.5772 12.5706 17.4643 12.8431 17.2634 13.044C17.0624 13.245 16.7899 13.3579 16.5057 13.3579C16.2216 13.3579 15.9491 13.245 15.7481 13.044C15.5472 12.8431 15.4343 12.5706 15.4343 12.2864C15.4343 12.0023 15.5472 11.7297 15.7481 11.5288C15.9491 11.3279 16.2216 11.215 16.5057 11.215ZM18.6417 4.357H5.35603C4.9582 4.357 4.57667 4.51504 4.29537 4.79634C4.01406 5.07765 3.85603 5.45918 3.85603 5.857V7.35958H20.1417V5.857C20.1417 5.45918 19.9837 5.07765 19.7024 4.79634C19.4211 4.51504 19.0396 4.357 18.6417 4.357Z" fill="white" fill-opacity="0.4"/>
</svg>
