<svg width="40" height="40" viewBox="0 0 40 40" fill="none" xmlns="http://www.w3.org/2000/svg">
<rect x="1" y="1" width="38" height="38" rx="19" stroke="#21FF91" stroke-width="2"/>
<path d="M20 23.333C21.3807 23.333 22.5 22.2137 22.5 20.833C22.5 19.4523 21.3807 18.333 20 18.333C18.6193 18.333 17.5 19.4523 17.5 20.833C17.5 22.2137 18.6193 23.333 20 23.333Z" stroke="black" stroke-width="1.5"/>
<path d="M18.1477 27.5H21.851C24.4518 27.5 25.7527 27.5 26.6868 26.8875C27.09 26.6235 27.4372 26.2825 27.7085 25.8842C28.3327 24.9675 28.3327 23.69 28.3327 21.1367C28.3327 18.5834 28.3327 17.3059 27.7085 16.3892C27.4372 15.9909 27.09 15.6499 26.6868 15.3859C26.0868 14.9917 25.3352 14.8509 24.1843 14.8009C23.6352 14.8009 23.1627 14.3925 23.0552 13.8634C22.973 13.4758 22.7596 13.1284 22.4509 12.88C22.1422 12.6316 21.7572 12.4974 21.361 12.5H18.6377C17.8143 12.5 17.1052 13.0709 16.9435 13.8634C16.836 14.3925 16.3635 14.8009 15.8143 14.8009C14.6643 14.8509 13.9127 14.9925 13.3118 15.3859C12.909 15.65 12.5621 15.9909 12.291 16.3892C11.666 17.3059 11.666 18.5825 11.666 21.1367C11.666 23.6909 11.666 24.9667 12.2902 25.8842C12.5602 26.2809 12.9068 26.6217 13.3118 26.8875C14.246 27.5 15.5468 27.5 18.1477 27.5Z" stroke="black" stroke-width="1.5"/>
<path d="M25.8333 18.333H25" stroke="black" stroke-width="1.5" stroke-linecap="round"/>
</svg>
