<svg width="17" height="12" viewBox="0 0 17 12" fill="none" xmlns="http://www.w3.org/2000/svg">
<path fill-rule="evenodd" clip-rule="evenodd" d="M16.5505 0.283903C17.0155 0.694903 17.059 1.4059 16.648 1.8739L8.02303 11.6239C7.92342 11.7365 7.80225 11.828 7.66667 11.893C7.5311 11.958 7.38387 11.9952 7.23368 12.0023C7.0835 12.0095 6.93341 11.9864 6.79228 11.9346C6.65116 11.8827 6.52186 11.8031 6.41203 11.7004L0.787025 6.4504C0.570631 6.24647 0.443773 5.96516 0.43418 5.66797C0.424587 5.37078 0.533041 5.08188 0.735833 4.86442C0.938626 4.64696 1.21926 4.51862 1.5164 4.50747C1.81354 4.49632 2.103 4.60325 2.32153 4.8049L7.10653 9.2599L14.9665 0.379903C15.0645 0.269044 15.1834 0.178605 15.3164 0.113766C15.4494 0.0489278 15.5939 0.0109624 15.7416 0.00204501C15.8893 -0.00687242 16.0373 0.0134333 16.1772 0.0617989C16.317 0.110164 16.4459 0.18564 16.5565 0.283903H16.5505Z" fill="#0BB064"/>
</svg>
