<svg width="21" height="23" viewBox="0 0 21 23" fill="none" xmlns="http://www.w3.org/2000/svg">
<path fill-rule="evenodd" clip-rule="evenodd" d="M13.5 0.75H9.444C7.606 0.75 6.15 0.75 5.011 0.903C3.839 1.061 2.89 1.393 2.141 2.141C1.393 2.89 1.061 3.839 0.903 5.011C0.75 6.151 0.75 7.606 0.75 9.444V15.5C0.749821 16.3935 1.06866 17.2577 1.6491 17.9369C2.22954 18.6162 3.03343 19.0659 3.916 19.205C4.053 19.969 4.318 20.621 4.848 21.152C5.45 21.754 6.208 22.012 7.108 22.134C7.975 22.25 9.078 22.25 10.445 22.25H13.555C14.922 22.25 16.025 22.25 16.892 22.134C17.792 22.012 18.55 21.754 19.152 21.152C19.754 20.55 20.012 19.792 20.134 18.892C20.25 18.025 20.25 16.922 20.25 15.555V10.445C20.25 9.078 20.25 7.975 20.134 7.108C20.012 6.208 19.754 5.45 19.152 4.848C18.621 4.318 17.969 4.053 17.205 3.916C17.0659 3.03343 16.6162 2.22954 15.9369 1.6491C15.2577 1.06866 14.3935 0.749821 13.5 0.75ZM15.63 3.771C15.4779 3.327 15.1909 2.94166 14.8089 2.66893C14.427 2.39619 13.9693 2.24971 13.5 2.25H9.5C7.593 2.25 6.239 2.252 5.21 2.39C4.205 2.525 3.625 2.779 3.202 3.202C2.779 3.625 2.525 4.205 2.39 5.21C2.252 6.239 2.25 7.593 2.25 9.5V15.5C2.24971 15.9693 2.39619 16.427 2.66892 16.8089C2.94166 17.1908 3.327 17.4779 3.771 17.63C3.75 17.02 3.75 16.33 3.75 15.555V10.445C3.75 9.078 3.75 7.975 3.867 7.108C3.987 6.208 4.247 5.45 4.848 4.848C5.45 4.246 6.208 3.988 7.108 3.867C7.975 3.75 9.078 3.75 10.445 3.75H13.555C14.33 3.75 15.02 3.75 15.63 3.771ZM5.908 5.91C6.185 5.633 6.573 5.453 7.308 5.354C8.062 5.253 9.064 5.251 10.499 5.251H13.499C14.934 5.251 15.935 5.253 16.691 5.354C17.425 5.453 17.813 5.634 18.09 5.91C18.367 6.187 18.547 6.575 18.646 7.31C18.747 8.064 18.749 9.066 18.749 10.501V15.501C18.749 16.936 18.747 17.937 18.646 18.693C18.547 19.427 18.366 19.815 18.09 20.092C17.813 20.369 17.425 20.549 16.69 20.648C15.935 20.749 14.934 20.751 13.499 20.751H10.499C9.064 20.751 8.062 20.749 7.307 20.648C6.573 20.549 6.185 20.368 5.908 20.092C5.631 19.815 5.451 19.427 5.352 18.692C5.251 17.937 5.249 16.936 5.249 15.501V10.501C5.249 9.066 5.251 8.064 5.352 7.309C5.451 6.575 5.632 6.187 5.908 5.91Z" fill="black"/>
</svg>
