<svg width="24" height="24" viewBox="0 0 24 24" fill="none" xmlns="http://www.w3.org/2000/svg">
<path fill-rule="evenodd" clip-rule="evenodd" d="M18.9953 8.71315L13.6672 4.56897C12.7053 3.82064 11.3581 3.82064 10.3962 4.56897L5.06711 8.71315C4.41812 9.21785 4.03867 9.99406 4.03906 10.8162V18.0096C4.03906 19.1131 4.93367 20.0077 6.03722 20.0077H18.0262C19.1297 20.0077 20.0243 19.1131 20.0243 18.0096V10.8162C20.0243 9.99396 19.6447 9.21768 18.9953 8.71315Z" stroke="#333333" stroke-width="1.09" stroke-linecap="round" stroke-linejoin="round"/>
<path fill-rule="evenodd" clip-rule="evenodd" d="M18.9953 8.71315L13.6672 4.56897C12.7053 3.82064 11.3581 3.82064 10.3962 4.56897L5.06711 8.71315C4.41812 9.21785 4.03867 9.99406 4.03906 10.8162V18.0096C4.03906 19.1131 4.93367 20.0077 6.03722 20.0077H18.0262C19.1297 20.0077 20.0243 19.1131 20.0243 18.0096V10.8162C20.0243 9.99396 19.6447 9.21768 18.9953 8.71315Z" stroke="white" stroke-opacity="0.2" stroke-width="1.09" stroke-linecap="round" stroke-linejoin="round"/>
<path d="M15 15.1248C13.3425 16.1246 10.656 16.1246 9 15.1248" stroke="#333333" stroke-width="1.09" stroke-linecap="round" stroke-linejoin="round"/>
<path d="M15 15.1248C13.3425 16.1246 10.656 16.1246 9 15.1248" stroke="white" stroke-opacity="0.2" stroke-width="1.09" stroke-linecap="round" stroke-linejoin="round"/>
</svg>
