<svg width="20" height="20" viewBox="0 0 20 20" fill="none" xmlns="http://www.w3.org/2000/svg">
<g clip-path="url(#clip0_2975_28993)">
<rect x="0.914062" y="0.451172" width="18.6329" height="19.0987" rx="2.79494" fill="white"/>
<path d="M10.2287 11.7358L8.51142 10.0191L8.85496 9.6697L9.98604 10.8008V6.60352H10.4713V10.8008L11.6019 9.67018L11.9459 10.0191L10.2287 11.7358ZM7.61617 13.3968C7.39264 13.3968 7.20615 13.322 7.05669 13.1726C6.90724 13.0231 6.83235 12.8365 6.83203 12.6126V11.4369H7.31726V12.6126C7.31726 12.6874 7.34832 12.7559 7.41043 12.8184C7.47254 12.8808 7.54096 12.9119 7.61568 12.9115H12.8416C12.916 12.9115 12.9845 12.8805 13.0469 12.8184C13.1093 12.7563 13.1404 12.6877 13.14 12.6126V11.4369H13.6253V12.6126C13.6253 12.8362 13.5506 13.0227 13.4011 13.1721C13.2517 13.3216 13.065 13.3964 12.8411 13.3968H7.61617Z" fill="#333333"/>
<path d="M10.2287 11.7358L8.51142 10.0191L8.85496 9.6697L9.98604 10.8008V6.60352H10.4713V10.8008L11.6019 9.67018L11.9459 10.0191L10.2287 11.7358ZM7.61617 13.3968C7.39264 13.3968 7.20615 13.322 7.05669 13.1726C6.90724 13.0231 6.83235 12.8365 6.83203 12.6126V11.4369H7.31726V12.6126C7.31726 12.6874 7.34832 12.7559 7.41043 12.8184C7.47254 12.8808 7.54096 12.9119 7.61568 12.9115H12.8416C12.916 12.9115 12.9845 12.8805 13.0469 12.8184C13.1093 12.7563 13.1404 12.6877 13.14 12.6126V11.4369H13.6253V12.6126C13.6253 12.8362 13.5506 13.0227 13.4011 13.1721C13.2517 13.3216 13.065 13.3964 12.8411 13.3968H7.61617Z" fill="white" fill-opacity="0.4"/>
</g>
<rect x="1.14697" y="0.684083" width="18.1671" height="18.6329" rx="2.56203" stroke="#DBDADE" stroke-width="0.465823"/>
<defs>
<clipPath id="clip0_2975_28993">
<rect x="0.914062" y="0.451172" width="18.6329" height="19.0987" rx="2.79494" fill="white"/>
</clipPath>
</defs>
</svg>
