<svg width="16" height="16" viewBox="0 0 16 16" fill="none" xmlns="http://www.w3.org/2000/svg">
<path d="M15 2.5H1C0.867392 2.5 0.740215 2.55268 0.646447 2.64645C0.552678 2.74021 0.5 2.86739 0.5 3C0.5 3.13261 0.552678 3.25979 0.646447 3.35355C0.740215 3.44732 0.867392 3.5 1 3.5H15C15.1326 3.5 15.2598 3.44732 15.3536 3.35355C15.4473 3.25979 15.5 3.13261 15.5 3C15.5 2.86739 15.4473 2.74021 15.3536 2.64645C15.2598 2.55268 15.1326 2.5 15 2.5ZM13 7.5H3C2.86739 7.5 2.74021 7.55268 2.64645 7.64645C2.55268 7.74021 2.5 7.86739 2.5 8C2.5 8.13261 2.55268 8.25979 2.64645 8.35355C2.74021 8.44732 2.86739 8.5 3 8.5H13C13.1326 8.5 13.2598 8.44732 13.3536 8.35355C13.4473 8.25979 13.5 8.13261 13.5 8C13.5 7.86739 13.4473 7.74021 13.3536 7.64645C13.2598 7.55268 13.1326 7.5 13 7.5ZM10.3075 12.5H5.6925C5.55989 12.5 5.43271 12.5527 5.33895 12.6464C5.24518 12.7402 5.1925 12.8674 5.1925 13C5.1925 13.1326 5.24518 13.2598 5.33895 13.3536C5.43271 13.4473 5.55989 13.5 5.6925 13.5H10.3075C10.4401 13.5 10.5673 13.4473 10.6611 13.3536C10.7548 13.2598 10.8075 13.1326 10.8075 13C10.8075 12.8674 10.7548 12.7402 10.6611 12.6464C10.5673 12.5527 10.4401 12.5 10.3075 12.5Z" fill="black"/>
</svg>
