<svg width="76" height="74" viewBox="0 0 76 74" fill="none" xmlns="http://www.w3.org/2000/svg">
<rect x="0.5" y="0.911621" width="75" height="72.5304" rx="36.2652" fill="#DCFCE7"/>
<mask id="mask0_2393_85962" style="mask-type:alpha" maskUnits="userSpaceOnUse" x="9" y="9" width="55" height="56">
<rect x="9.56641" y="9.97791" width="54.3978" height="54.3978" fill="#D9D9D9"/>
</mask>
<g mask="url(#mask0_2393_85962)">
<circle cx="37.7344" cy="33.4266" r="18" fill="black"/>
<path d="M33.5922 47.6016L49.5715 31.6223L46.3983 28.4491L33.5922 41.2552L27.1324 34.7955L23.9592 37.9687L33.5922 47.6016ZM36.7654 59.8411C33.6299 59.8411 30.6834 59.2458 27.9257 58.0551C25.168 56.8659 22.7693 55.2513 20.7293 53.2114C18.6894 51.1715 17.0749 48.7727 15.8857 46.015C14.695 43.2574 14.0996 40.3108 14.0996 37.1754C14.0996 34.04 14.695 31.0934 15.8857 28.3357C17.0749 25.5781 18.6894 23.1793 20.7293 21.1394C22.7693 19.0995 25.168 17.4841 27.9257 16.2934C30.6834 15.1042 33.6299 14.5096 36.7654 14.5096C39.9008 14.5096 42.8473 15.1042 45.605 16.2934C48.3627 17.4841 50.7615 19.0995 52.8014 21.1394C54.8413 23.1793 56.4558 25.5781 57.645 28.3357C58.8357 31.0934 59.4311 34.04 59.4311 37.1754C59.4311 40.3108 58.8357 43.2574 57.645 46.015C56.4558 48.7727 54.8413 51.1715 52.8014 53.2114C50.7615 55.2513 48.3627 56.8659 45.605 58.0551C42.8473 59.2458 39.9008 59.8411 36.7654 59.8411Z" fill="#00DF80"/>
</g>
</svg>
