<svg width="75" height="74" viewBox="0 0 75 74" fill="none" xmlns="http://www.w3.org/2000/svg">
<rect y="0.911621" width="75" height="72.5304" rx="36.2652" fill="#FEE2E2"/>
<mask id="mask0_2393_86972" style="mask-type:alpha" maskUnits="userSpaceOnUse" x="9" y="9" width="55" height="56">
<rect x="9.06641" y="9.97791" width="54.3978" height="54.3978" fill="#D9D9D9"/>
</mask>
<g mask="url(#mask0_2393_86972)">
<circle cx="37.2344" cy="36.4266" r="18" fill="black"/>
<mask id="mask1_2393_86972" style="mask-type:alpha" maskUnits="userSpaceOnUse" x="14" y="13" width="47" height="46">
<rect x="14.9629" y="13.6068" width="45.33" height="45.33" fill="#D9D9D9"/>
</mask>
<g mask="url(#mask1_2393_86972)">
<path d="M30.8282 45.7159L37.6277 38.9164L44.4272 45.7159L47.0715 43.0716L40.272 36.2721L47.0715 29.4726L44.4272 26.8284L37.6277 33.6279L30.8282 26.8284L28.184 29.4726L34.9835 36.2721L28.184 43.0716L30.8282 45.7159ZM37.6277 55.1596C35.015 55.1596 32.5596 54.6635 30.2616 53.6713C27.9636 52.6803 25.9647 51.3349 24.2648 49.6351C22.565 47.9352 21.2195 45.9362 20.2286 43.6383C19.2363 41.3403 18.7402 38.8849 18.7402 36.2721C18.7402 33.6594 19.2363 31.204 20.2286 28.906C21.2195 26.608 22.565 24.6091 24.2648 22.9092C25.9647 21.2094 27.9636 19.8633 30.2616 18.8711C32.5596 17.8801 35.015 17.3846 37.6277 17.3846C40.2405 17.3846 42.6959 17.8801 44.9939 18.8711C47.2918 19.8633 49.2908 21.2094 50.9906 22.9092C52.6905 24.6091 54.0359 26.608 55.0269 28.906C56.0191 31.204 56.5152 33.6594 56.5152 36.2721C56.5152 38.8849 56.0191 41.3403 55.0269 43.6383C54.0359 45.9362 52.6905 47.9352 50.9906 49.6351C49.2908 51.3349 47.2918 52.6803 44.9939 53.6713C42.6959 54.6635 40.2405 55.1596 37.6277 55.1596Z" fill="#F04248"/>
</g>
</g>
</svg>
