<svg width="49" height="46" viewBox="0 0 49 46" fill="none" xmlns="http://www.w3.org/2000/svg">
<g opacity="0.26">
<path d="M24.916 0.496094C37.9662 0.496094 48.5008 10.5268 48.501 22.8457C48.501 35.1648 37.9664 45.1963 24.916 45.1963C11.8658 45.1961 1.33203 35.1647 1.33203 22.8457C1.33225 10.5269 11.8659 0.496244 24.916 0.496094Z" stroke="#21FF91"/>
<path d="M24.916 0.496094C37.9662 0.496094 48.5008 10.5268 48.501 22.8457C48.501 35.1648 37.9664 45.1963 24.916 45.1963C11.8658 45.1961 1.33203 35.1647 1.33203 22.8457C1.33225 10.5269 11.8659 0.496244 24.916 0.496094Z" stroke="white" stroke-opacity="0.2"/>
</g>
<path d="M25 14.75H18.5833C18.0971 14.75 17.6308 14.9432 17.287 15.287C16.9432 15.6308 16.75 16.0971 16.75 16.5833V29.4167C16.75 29.9029 16.9432 30.3692 17.287 30.713C17.6308 31.0568 18.0971 31.25 18.5833 31.25H31.4167C31.9029 31.25 32.3692 31.0568 32.713 30.713C33.0568 30.3692 33.25 29.9029 33.25 29.4167V23" stroke="#21FF91" stroke-width="1.5" stroke-linecap="round" stroke-linejoin="round"/>
<path d="M26.8333 25.7474H22.25V21.1641" stroke="#21FF91" stroke-width="1.5" stroke-linecap="round" stroke-linejoin="round"/>
<path d="M28.6641 14.75H33.2474V19.3333" stroke="#21FF91" stroke-width="1.5" stroke-linecap="round" stroke-linejoin="round"/>
<path d="M33.25 14.75L22.25 25.75" stroke="#21FF91" stroke-width="1.5" stroke-linecap="round" stroke-linejoin="round"/>
</svg>
