<svg width="24" height="24" viewBox="0 0 24 24" fill="none" xmlns="http://www.w3.org/2000/svg">
<path d="M7.03125 6.53125H20.9375C21.3125 6.53125 21.6563 6.21875 21.6563 5.8125C21.6563 5.40625 21.3438 5.09375 20.9375 5.09375H7.03125C6.65625 5.09375 6.3125 5.40625 6.3125 5.8125C6.3125 6.21875 6.625 6.53125 7.03125 6.53125Z" fill="#333333"/>
<path d="M7.03125 6.53125H20.9375C21.3125 6.53125 21.6563 6.21875 21.6563 5.8125C21.6563 5.40625 21.3438 5.09375 20.9375 5.09375H7.03125C6.65625 5.09375 6.3125 5.40625 6.3125 5.8125C6.3125 6.21875 6.625 6.53125 7.03125 6.53125Z" fill="white" fill-opacity="0.2"/>
<path d="M20.9062 11.3125H7.03125C6.65625 11.3125 6.3125 11.625 6.3125 12.0312C6.3125 12.4062 6.625 12.75 7.03125 12.75H20.9375C21.3125 12.75 21.6563 12.4375 21.6563 12.0312C21.625 11.625 21.3125 11.3125 20.9062 11.3125Z" fill="#333333"/>
<path d="M20.9062 11.3125H7.03125C6.65625 11.3125 6.3125 11.625 6.3125 12.0312C6.3125 12.4062 6.625 12.75 7.03125 12.75H20.9375C21.3125 12.75 21.6563 12.4375 21.6563 12.0312C21.625 11.625 21.3125 11.3125 20.9062 11.3125Z" fill="white" fill-opacity="0.2"/>
<path d="M20.9062 17.4688H7.03125C6.65625 17.4688 6.3125 17.7812 6.3125 18.1875C6.3125 18.5938 6.625 18.9062 7.03125 18.9062H20.9375C21.3125 18.9062 21.6563 18.5938 21.6563 18.1875C21.6563 17.7812 21.3125 17.4688 20.9062 17.4688Z" fill="#333333"/>
<path d="M20.9062 17.4688H7.03125C6.65625 17.4688 6.3125 17.7812 6.3125 18.1875C6.3125 18.5938 6.625 18.9062 7.03125 18.9062H20.9375C21.3125 18.9062 21.6563 18.5938 21.6563 18.1875C21.6563 17.7812 21.3125 17.4688 20.9062 17.4688Z" fill="white" fill-opacity="0.2"/>
<path d="M3.9375 6.65625C4.40349 6.65625 4.78125 6.27849 4.78125 5.8125C4.78125 5.34651 4.40349 4.96875 3.9375 4.96875C3.47151 4.96875 3.09375 5.34651 3.09375 5.8125C3.09375 6.27849 3.47151 6.65625 3.9375 6.65625Z" fill="#333333"/>
<path d="M3.9375 6.65625C4.40349 6.65625 4.78125 6.27849 4.78125 5.8125C4.78125 5.34651 4.40349 4.96875 3.9375 4.96875C3.47151 4.96875 3.09375 5.34651 3.09375 5.8125C3.09375 6.27849 3.47151 6.65625 3.9375 6.65625Z" fill="white" fill-opacity="0.2"/>
<path d="M3.9375 12.8438C4.40349 12.8438 4.78125 12.466 4.78125 12C4.78125 11.534 4.40349 11.1562 3.9375 11.1562C3.47151 11.1562 3.09375 11.534 3.09375 12C3.09375 12.466 3.47151 12.8438 3.9375 12.8438Z" fill="#333333"/>
<path d="M3.9375 12.8438C4.40349 12.8438 4.78125 12.466 4.78125 12C4.78125 11.534 4.40349 11.1562 3.9375 11.1562C3.47151 11.1562 3.09375 11.534 3.09375 12C3.09375 12.466 3.47151 12.8438 3.9375 12.8438Z" fill="white" fill-opacity="0.2"/>
<path d="M3.9375 19.0312C4.40349 19.0312 4.78125 18.6535 4.78125 18.1875C4.78125 17.7215 4.40349 17.3438 3.9375 17.3438C3.47151 17.3438 3.09375 17.7215 3.09375 18.1875C3.09375 18.6535 3.47151 19.0312 3.9375 19.0312Z" fill="#333333"/>
<path d="M3.9375 19.0312C4.40349 19.0312 4.78125 18.6535 4.78125 18.1875C4.78125 17.7215 4.40349 17.3438 3.9375 17.3438C3.47151 17.3438 3.09375 17.7215 3.09375 18.1875C3.09375 18.6535 3.47151 19.0312 3.9375 19.0312Z" fill="white" fill-opacity="0.2"/>
</svg>
