<svg width="40" height="40" viewBox="0 0 40 40" fill="none" xmlns="http://www.w3.org/2000/svg">
<rect x="1" y="1" width="38" height="38" rx="19" stroke="#21FF91" stroke-width="2"/>
<path fill-rule="evenodd" clip-rule="evenodd" d="M20 11.667C21.9891 11.667 23.8968 12.4572 25.3033 13.8637C26.7098 15.2702 27.5 17.1779 27.5 19.167C27.5 21.7287 26.1033 23.8253 24.6317 25.3295C23.8964 26.0729 23.0941 26.7468 22.235 27.3428L21.88 27.5845L21.7133 27.6953L21.3992 27.8953L21.1192 28.0662L20.7725 28.2678C20.5372 28.4021 20.2709 28.4728 20 28.4728C19.7291 28.4728 19.4628 28.4021 19.2275 28.2678L18.8808 28.0662L18.4475 27.7995L18.2875 27.6953L17.9458 27.4678C17.019 26.8408 16.1558 26.1246 15.3683 25.3295C13.8967 23.8245 12.5 21.7287 12.5 19.167C12.5 17.1779 13.2902 15.2702 14.6967 13.8637C16.1032 12.4572 18.0109 11.667 20 11.667ZM20 13.3337C18.4529 13.3337 16.9692 13.9482 15.8752 15.0422C14.7812 16.1362 14.1667 17.6199 14.1667 19.167C14.1667 21.102 15.2267 22.8003 16.5592 24.1637C17.1321 24.7437 17.7514 25.276 18.4108 25.7553L18.7925 26.027C18.9158 26.1131 19.0344 26.1931 19.1483 26.267L19.4733 26.4753L19.7592 26.6495L20 26.7903L20.3792 26.5662L20.685 26.3745C20.8478 26.2712 21.0219 26.1553 21.2075 26.027L21.5892 25.7553C22.2486 25.276 22.8679 24.7437 23.4408 24.1637C24.7733 22.8012 25.8333 21.102 25.8333 19.167C25.8333 17.6199 25.2188 16.1362 24.1248 15.0422C23.0308 13.9482 21.5471 13.3337 20 13.3337ZM20 15.8337C20.8841 15.8337 21.7319 16.1848 22.357 16.81C22.9821 17.4351 23.3333 18.2829 23.3333 19.167C23.3333 20.051 22.9821 20.8989 22.357 21.524C21.7319 22.1491 20.8841 22.5003 20 22.5003C19.1159 22.5003 18.2681 22.1491 17.643 21.524C17.0179 20.8989 16.6667 20.051 16.6667 19.167C16.6667 18.2829 17.0179 17.4351 17.643 16.81C18.2681 16.1848 19.1159 15.8337 20 15.8337ZM20 17.5003C19.558 17.5003 19.134 17.6759 18.8215 17.9885C18.5089 18.301 18.3333 18.725 18.3333 19.167C18.3333 19.609 18.5089 20.0329 18.8215 20.3455C19.134 20.6581 19.558 20.8337 20 20.8337C20.442 20.8337 20.866 20.6581 21.1785 20.3455C21.4911 20.0329 21.6667 19.609 21.6667 19.167C21.6667 18.725 21.4911 18.301 21.1785 17.9885C20.866 17.6759 20.442 17.5003 20 17.5003Z" fill="black"/>
</svg>
