<svg width="152" height="176" viewBox="0 0 152 176" fill="none" xmlns="http://www.w3.org/2000/svg">
<path d="M105.231 0H70.1535C60.7997 32.7385 93.5385 64.3078 116.923 64.3078L116.923 111.077C79.5074 106.4 70.1535 152 70.1535 175.385H105.231C105.231 128.616 136.41 113.026 152 111.077V58.4616C123.938 63.1386 109.128 21.4359 105.231 0Z" fill="#00FF83" fill-opacity="0.5"/>
<path d="M42.7498 0H0C0 35.077 17.5386 76.0001 35.0771 89.6893C11.6925 93.5386 0.000157329 140.308 1.82662 169.539H40.9233C45.6002 122.769 71.9806 111.077 83.6729 111.077V64.3078C55.6113 59.6309 44.6985 19.4872 42.7498 0Z" fill="#00FF83" fill-opacity="0.5"/>
</svg>
