<svg width="22" height="22" viewBox="0 0 22 22" fill="none" xmlns="http://www.w3.org/2000/svg">
<path d="M3.66537 11.0013H12.3737M5.4987 13.7513L2.7487 11.0013L5.4987 8.2513M10.082 6.41797V5.5013C10.082 5.01507 10.2752 4.54876 10.619 4.20494C10.9628 3.86112 11.4291 3.66797 11.9154 3.66797H16.4987C16.9849 3.66797 17.4512 3.86112 17.7951 4.20494C18.1389 4.54876 18.332 5.01507 18.332 5.5013V16.5013C18.332 16.9875 18.1389 17.4538 17.7951 17.7977C17.4512 18.1415 16.9849 18.3346 16.4987 18.3346H11.9154C11.4291 18.3346 10.9628 18.1415 10.619 17.7977C10.2752 17.4538 10.082 16.9875 10.082 16.5013V15.5846" stroke="#6F6B7D" stroke-width="1.5" stroke-linecap="round" stroke-linejoin="round"/>
</svg>
