<svg width="20" height="20" viewBox="0 0 20 20" fill="none" xmlns="http://www.w3.org/2000/svg">
<mask id="path-1-inside-1_2164_90550" fill="white">
<path d="M12.6013 3.53906H13.3346C13.9977 3.53906 14.6336 3.80245 15.1024 4.2713C15.5712 4.74014 15.8346 5.37602 15.8346 6.03906V15.2057C15.8346 15.8688 15.5712 16.5047 15.1024 16.9735C14.6336 17.4423 13.9977 17.7057 13.3346 17.7057H6.66797C6.00493 17.7057 5.36904 17.4423 4.9002 16.9735C4.43136 16.5047 4.16797 15.8688 4.16797 15.2057V6.03906C4.16797 5.37602 4.43136 4.74014 4.9002 4.2713C5.36904 3.80245 6.00493 3.53906 6.66797 3.53906H7.41797"/>
</mask>
<path d="M12.6013 1.94906C11.7232 1.94906 11.0113 2.66093 11.0113 3.53906C11.0113 4.4172 11.7232 5.12906 12.6013 5.12906V1.94906ZM15.8346 6.03906L17.4246 6.03906L15.8346 6.03906ZM15.8346 15.2057H17.4246H15.8346ZM13.3346 17.7057L13.3346 19.2957L13.3346 17.7057ZM6.66797 17.7057V19.2957V17.7057ZM6.66797 3.53906L6.66797 1.94906L6.66797 3.53906ZM7.41797 5.12906C8.2961 5.12906 9.00797 4.4172 9.00797 3.53906C9.00797 2.66093 8.2961 1.94906 7.41797 1.94906V5.12906ZM12.6013 3.53906V5.12906H13.3346V3.53906V1.94906H12.6013V3.53906ZM13.3346 3.53906V5.12906C13.576 5.12906 13.8074 5.22494 13.9781 5.3956L15.1024 4.2713L16.2267 3.147C15.4597 2.37997 14.4194 1.94906 13.3346 1.94906V3.53906ZM15.1024 4.2713L13.9781 5.3956C14.1488 5.56625 14.2446 5.79772 14.2446 6.03906L15.8346 6.03906L17.4246 6.03906C17.4246 4.95433 16.9937 3.91402 16.2267 3.147L15.1024 4.2713ZM15.8346 6.03906H14.2446V15.2057H15.8346H17.4246V6.03906H15.8346ZM15.8346 15.2057L14.2446 15.2057C14.2446 15.4471 14.1488 15.6785 13.9781 15.8492L15.1024 16.9735L16.2267 18.0978C16.9937 17.3308 17.4246 16.2905 17.4246 15.2057L15.8346 15.2057ZM15.1024 16.9735L13.9781 15.8492C13.8074 16.0199 13.576 16.1157 13.3346 16.1157L13.3346 17.7057L13.3346 19.2957C14.4194 19.2957 15.4597 18.8648 16.2267 18.0978L15.1024 16.9735ZM13.3346 17.7057V16.1157H6.66797V17.7057V19.2957H13.3346V17.7057ZM6.66797 17.7057L6.66797 16.1157C6.42662 16.1157 6.19516 16.0199 6.0245 15.8492L4.9002 16.9735L3.7759 18.0978C4.54293 18.8648 5.58323 19.2957 6.66797 19.2957L6.66797 17.7057ZM4.9002 16.9735L6.0245 15.8492C5.85384 15.6785 5.75797 15.4471 5.75797 15.2057H4.16797H2.57797C2.57797 16.2905 3.00888 17.3308 3.7759 18.0978L4.9002 16.9735ZM4.16797 15.2057H5.75797V6.03906H4.16797H2.57797V15.2057H4.16797ZM4.16797 6.03906H5.75797C5.75797 5.79772 5.85384 5.56625 6.0245 5.3956L4.9002 4.2713L3.7759 3.147C3.00888 3.91402 2.57797 4.95433 2.57797 6.03906H4.16797ZM4.9002 4.2713L6.0245 5.3956C6.19516 5.22494 6.42662 5.12906 6.66797 5.12906L6.66797 3.53906L6.66797 1.94906C5.58323 1.94906 4.54293 2.37997 3.7759 3.147L4.9002 4.2713ZM6.66797 3.53906V5.12906H7.41797V3.53906V1.94906H6.66797V3.53906Z" fill="#787C82" mask="url(#path-1-inside-1_2164_90550)"/>
<path d="M12.5 10.8359H7.5" stroke="#787C82" stroke-width="1.59" stroke-linecap="round" stroke-linejoin="round"/>
<path d="M10.5 13.332H7.5" stroke="#787C82" stroke-width="1.59" stroke-linecap="round" stroke-linejoin="round"/>
<path d="M12.5 8.33203H7.5" stroke="#787C82" stroke-width="1.59406" stroke-linecap="round" stroke-linejoin="round"/>
<path d="M11.25 2.29297H8.75C8.05964 2.29297 7.5 2.85261 7.5 3.54297C7.5 4.23332 8.05964 4.79297 8.75 4.79297H11.25C11.9404 4.79297 12.5 4.23332 12.5 3.54297C12.5 2.85261 11.9404 2.29297 11.25 2.29297Z" stroke="#787C82" stroke-width="1.59406" stroke-miterlimit="10" stroke-linecap="round"/>
</svg>
