<svg width="51" height="49" viewBox="0 0 51 49" fill="none" xmlns="http://www.w3.org/2000/svg">
<rect x="0.5" y="0.132812" width="50" height="48.3536" rx="24.1768" fill="#303746"/>
<mask id="mask0_1504_54818" style="mask-type:alpha" maskUnits="userSpaceOnUse" x="7" y="6" width="37" height="37">
<rect x="7.36719" y="6.17773" width="36.2652" height="36.2652" fill="#D9D9D9"/>
</mask>
<g mask="url(#mask0_1504_54818)">
<path d="M23.3857 31.2605L34.0386 20.6076L31.9231 18.4922L23.3857 27.0296L19.0792 22.7231L16.9637 24.8386L23.3857 31.2605ZM25.5011 39.4202C23.4108 39.4202 21.4465 39.0233 19.608 38.2295C17.7696 37.4367 16.1704 36.3603 14.8104 35.0004C13.4505 33.6404 12.3741 32.0413 11.5813 30.2028C10.7875 28.3644 10.3906 26.4 10.3906 24.3097C10.3906 22.2194 10.7875 20.2551 11.5813 18.4166C12.3741 16.5782 13.4505 14.979 14.8104 13.619C16.1704 12.2591 17.7696 11.1822 19.608 10.3884C21.4465 9.59562 23.4108 9.19922 25.5011 9.19922C27.5914 9.19922 29.5558 9.59562 31.3942 10.3884C33.2327 11.1822 34.8319 12.2591 36.1918 13.619C37.5517 14.979 38.6281 16.5782 39.4209 18.4166C40.2147 20.2551 40.6116 22.2194 40.6116 24.3097C40.6116 26.4 40.2147 28.3644 39.4209 30.2028C38.6281 32.0413 37.5517 33.6404 36.1918 35.0004C34.8319 36.3603 33.2327 37.4367 31.3942 38.2295C29.5558 39.0233 27.5914 39.4202 25.5011 39.4202Z" fill="#00DF80"/>
</g>
</svg>
