<svg width="12" height="12" viewBox="0 0 12 12" fill="none" xmlns="http://www.w3.org/2000/svg">
<path d="M4.18263 4.96454H7.02607M4.18263 6.10192H7.59476M4.18263 7.23929H5.8887M9.30083 8.94536V3.25847C9.30083 2.95682 9.181 2.66752 8.9677 2.45422C8.7544 2.24092 8.4651 2.12109 8.16345 2.12109H3.61394C3.31229 2.12109 3.02299 2.24092 2.80969 2.45422C2.59639 2.66752 2.47656 2.95682 2.47656 3.25847V8.94536C2.47656 9.24701 2.59639 9.53631 2.80969 9.74961C3.02299 9.96291 3.31229 10.0827 3.61394 10.0827H8.16345C8.4651 10.0827 8.7544 9.96291 8.9677 9.74961C9.181 9.53631 9.30083 9.24701 9.30083 8.94536Z" stroke="#0AA7DC" stroke-width="0.758252" stroke-linecap="round" stroke-linejoin="round"/>
</svg>
