<svg width="75" height="75" viewBox="0 0 75 75" fill="none" xmlns="http://www.w3.org/2000/svg">
<rect x="5.22461" y="5.13281" width="64.66" height="64.66" rx="31.0238" fill="#FEF0C7"/>
<rect x="5.22461" y="5.13281" width="64.66" height="64.66" rx="31.0238" stroke="#FFFAEB" stroke-width="8.86393"/>
<path d="M37.8164 31.293V35.7249M37.8164 40.1568H37.8275M35.9218 25.598L26.5372 41.2648C26.3437 41.5999 26.2413 41.9798 26.2402 42.3667C26.2392 42.7536 26.3394 43.1341 26.531 43.4703C26.7226 43.8064 26.9989 44.0866 27.3324 44.2828C27.6659 44.479 28.0449 44.5845 28.4318 44.5888H47.201C47.588 44.5845 47.967 44.479 48.3005 44.2828C48.634 44.0866 48.9103 43.8064 49.1019 43.4703C49.2935 43.1341 49.3937 42.7536 49.3926 42.3667C49.3916 41.9798 49.2892 41.5999 49.0957 41.2648L39.7111 25.598C39.5136 25.2723 39.2355 25.0031 38.9036 24.8163C38.5717 24.6294 38.1973 24.5312 37.8164 24.5312C37.4356 24.5312 37.0612 24.6294 36.7293 24.8163C36.3974 25.0031 36.1193 25.2723 35.9218 25.598Z" stroke="#DC6803" stroke-width="2.21598" stroke-linecap="round" stroke-linejoin="round"/>
</svg>
