<svg width="24" height="25" viewBox="0 0 24 25" fill="none" xmlns="http://www.w3.org/2000/svg">
<path d="M19.7331 10.3783L20.6464 9.46502C21.373 8.73849 21.7811 7.7531 21.7811 6.72564C21.7811 5.69817 21.373 4.71278 20.6464 3.98625C19.9199 3.25972 18.9345 2.85156 17.9071 2.85156C16.8796 2.85156 15.8942 3.25972 15.1677 3.98625L14.2544 4.89954L5.8584 13.2936C5.28993 13.863 5.0052 14.1477 4.76087 14.461C4.47259 14.831 4.22518 15.231 4.02295 15.6541C3.85251 16.0127 3.72541 16.395 3.47123 17.1576L2.39341 20.39M19.7331 10.3783C19.7331 10.3783 17.7933 10.264 16.081 8.55173C14.3687 6.84041 14.2554 4.89954 14.2554 4.89954M19.7331 10.3783L11.3382 18.7723C10.7697 19.3408 10.485 19.6255 10.1717 19.8699C9.80174 20.1581 9.40171 20.4055 8.97857 20.6078C8.61995 20.7782 8.23867 20.9053 7.47513 21.1595L4.24265 22.2373M4.24265 22.2373L3.45251 22.5014C3.26833 22.5631 3.07057 22.5723 2.88147 22.5278C2.69236 22.4833 2.51941 22.387 2.38205 22.2497C2.24469 22.1123 2.14836 21.9393 2.1039 21.7502C2.05943 21.5611 2.06859 21.3634 2.13035 21.1792L2.39439 20.3891L4.24265 22.2373Z" stroke="#4B465C" stroke-width="1.47782"/>
</svg>
