<svg width="19" height="20" viewBox="0 0 19 20" fill="none" xmlns="http://www.w3.org/2000/svg">
<path d="M15.7927 5.81307L15.0962 5.11652C13.7769 3.79702 12.0324 2.98831 10.1729 2.83431C8.31339 2.6803 6.45956 3.19098 4.94123 4.27548C3.42291 5.35998 2.33857 6.94796 1.88115 8.75688C1.42373 10.5658 1.62289 12.4783 2.44319 14.1542C3.2635 15.8301 4.65175 17.1606 6.36093 17.909C8.07012 18.6574 9.98939 18.7752 11.7773 18.2414C13.5651 17.7075 15.1056 16.5568 16.1247 14.9938C17.1438 13.4308 17.5753 11.5569 17.3424 9.70564M15.7927 5.81307L11.6124 5.81405M15.7927 5.81307V1.63281" stroke="#4B465C" stroke-width="1.47782" stroke-linecap="round" stroke-linejoin="round"/>
</svg>
