<svg width="187" height="81" viewBox="0 0 187 81" fill="none" xmlns="http://www.w3.org/2000/svg">
<path d="M21.4469 64.7428C21.4469 50.9551 22.212 37.2489 22.6953 23.4749C22.7456 22.0397 22.8188 17.6547 23.0074 15.7687C23.0084 15.7585 23.1191 13.5936 23.9436 13.7521C25.0065 13.9565 25.0252 19.1579 25.144 19.9459C26.7561 30.6444 34.9884 38.2743 43.1011 44.673C47.1854 47.8944 51.2339 51.0895 54.6965 54.996C55.1159 55.4692 56.0782 56.2943 56.0169 57.0606C55.7683 60.1682 39.9156 51.0571 39.5001 50.8428C27.637 44.7234 15.8966 41.4081 2.5775 41.4081C-6.28905 41.4081 20.3106 41.4081 29.1771 41.4081C42.1145 41.4081 55.0303 41.3169 67.8763 39.5836C70.7195 39.1999 74.6923 38.4937 77.6231 37.9031C78.0126 37.8246 80.8828 37.485 81.3921 36.8228C82.7647 35.0384 76.7125 35.0561 75.7025 36.3186C74.3256 38.0398 69.4057 37.0869 67.4922 37.0869C64.3873 37.0869 61.2824 37.0869 58.1775 37.0869C55.6183 37.0869 60.5666 41.4641 60.7942 42.4884C61.4048 45.2362 64.2272 46.3282 64.2272 49.4024C64.2272 51.8973 69.0296 51.2449 70.517 50.2907C74.0435 48.0284 73.3018 45.2562 73.3018 41.5041C73.3018 40.9922 73.3004 39.2333 73.2778 39.3915C72.7372 43.1762 72.7201 47.0954 72.8937 50.9148C73.1133 55.7453 75.2193 60.7726 76.7588 65.295C77.2663 66.7858 81.0789 78.4326 78.8234 79.435C76.5312 80.4538 73.5514 80.7598 71.2372 79.5791C67.6622 77.7551 64.5135 69.2213 66.772 65.511C68.2813 63.0314 72.0457 61.6053 74.4542 60.2775C76.4709 59.1657 78.2917 57.8751 80.2158 56.6285C82.3015 55.2772 85.2568 52.9647 86.1695 50.5307C87.117 48.0042 87.2674 43.2403 85.9295 40.8319C85.7404 40.4917 82.365 36.6397 81.9923 38.5033C81.3451 41.7392 79.2277 48.4974 83.2167 50.2426C86.2834 51.5843 90.3213 52.3422 92.3633 49.1863C93.3256 47.6992 92.7474 44.7994 92.7474 43.1366C92.7474 39.3056 90.145 37.9604 86.6737 36.5347C84.7873 35.7599 80.8397 34.9759 79.1115 36.6547C76.9573 38.7474 80.7255 39.2263 81.6562 40.4478C83.352 42.6736 88.1278 43.155 90.5868 41.8882C93.1862 40.5492 92.7474 36.6695 92.7474 34.23C92.7474 27.6427 94.8904 21.8347 95.8923 15.3606C95.9562 14.9476 96.8014 11.9855 95.5802 12.0236C94.2483 12.0653 94.4759 13.5498 94.4759 14.4964C94.4759 18.3387 94.2499 22.0991 94.0678 25.9236C93.9292 28.8346 93.5193 32.6105 94.3319 35.4544C95.2308 38.6008 97.4062 41.22 97.5008 44.625C97.6553 50.1888 100.479 40.9296 101.246 39.8236C101.745 39.1035 104.694 34.206 105.471 34.206C106.736 34.206 106.057 40.4682 106.191 41.5761C106.348 42.8688 107.265 44.6705 108.736 44.7931C110.275 44.9213 110.889 42.6302 111.665 41.6962C115.271 37.3568 120.29 34.3414 125.109 31.5413C125.127 31.5306 128.117 30.1391 126.213 30.2449C123.356 30.4036 120.553 31.7012 118.627 33.8219C116.507 36.1554 115.134 39.2082 113.177 41.6962C110.704 44.8408 108.034 47.8209 105.615 51.0109C103.521 53.7728 101.555 56.6187 100.406 59.9174C100.212 60.4733 99.0312 63.8245 99.6614 64.4547C99.9086 64.7019 99.836 63.777 99.9495 63.4464C100.785 61.0138 101.996 58.9198 103.599 56.8925C110.826 47.7523 121.11 42.089 130.966 36.2706C149.63 25.254 166.848 11.7238 185.822 1.26856C187.605 0.286014 182.636 0.778365 181.957 0.78842C179.858 0.819519 178.254 0.825633 176.964 2.61294C172.008 9.4741 167.832 16.9639 162.559 23.571C157.584 29.8051 153.13 36.2308 148.732 42.8965C144.438 49.4039 139.513 55.7765 135.936 62.7262C135.192 64.171 127.264 74.5706 126.885 69.9283C126.733 68.0674 125.821 67.0528 126.117 64.9829C126.435 62.7573 127.005 61.2381 129.046 60.4216" stroke="#4B465C" stroke-width="0.738583" stroke-linecap="round"/>
</svg>
