<svg width="100" height="100" viewBox="0 0 100 100" fill="none" xmlns="http://www.w3.org/2000/svg">
<path d="M50 7.25C53.1561 7.25 55.6737 9.2329 58.1045 11.5068L59.1436 12.4941L59.1445 12.4961C59.9081 13.2267 60.716 14.0004 61.5107 14.6631C62.297 15.3186 63.1359 15.9216 63.9736 16.2676V16.2666C64.7606 16.5935 65.7357 16.745 66.7061 16.8252C67.1985 16.8659 67.7139 16.8902 68.2334 16.9062L69.7852 16.9375C73.688 16.9975 77.5609 17.1 80.2305 19.7695C82.5664 22.1054 82.9369 25.3625 83.0332 28.7549L83.0625 30.2148C83.078 31.2319 83.0934 32.309 83.1748 33.2939C83.2549 34.2633 83.4052 35.2379 83.7314 36.0244V36.0254C84.0775 36.8657 84.6811 37.7042 85.3369 38.4902C85.6683 38.8875 86.0277 39.2881 86.3955 39.6846L87.5039 40.8555L87.5049 40.8564C90.1603 43.624 92.75 46.3929 92.75 50C92.75 53.1561 90.7671 55.6737 88.4932 58.1045L87.5059 59.1436L87.5039 59.1445C86.7733 59.9081 85.9996 60.716 85.3369 61.5107C84.6819 62.2964 84.0795 63.1346 83.7334 63.9717C83.406 64.7589 83.2551 65.7351 83.1748 66.7061C83.1341 67.1985 83.1098 67.7139 83.0938 68.2334L83.0625 69.7852C83.0025 73.688 82.9 77.5609 80.2305 80.2305C77.8946 82.5664 74.6375 82.9369 71.2451 83.0332L69.7852 83.0625C68.7681 83.078 67.691 83.0934 66.7061 83.1748C65.8565 83.245 65.0028 83.3691 64.2754 83.6182L63.9746 83.7314C63.1343 84.0775 62.2958 84.6811 61.5098 85.3369C61.1125 85.6683 60.7119 86.0277 60.3154 86.3955L59.1445 87.5039L59.1436 87.5049C56.376 90.1603 53.6071 92.75 50 92.75C46.8439 92.75 44.3263 90.7671 41.8955 88.4932L40.8564 87.5059L40.8555 87.5039L39.6836 86.3945C39.287 86.027 38.8865 85.6681 38.4893 85.3369C37.703 84.6814 36.8641 84.0784 36.0264 83.7324H36.0254C35.2387 83.4058 34.2638 83.255 33.2939 83.1748C32.8015 83.1341 32.2861 83.1098 31.7666 83.0938L30.2148 83.0625C26.312 83.0025 22.4391 82.9 19.7695 80.2305C17.4336 77.8946 17.0631 74.6375 16.9668 71.2451L16.9375 69.7852C16.922 68.7681 16.9066 67.691 16.8252 66.7061C16.745 65.7362 16.5942 64.7613 16.2676 63.9746H16.2686C15.9225 63.1343 15.3189 62.2958 14.6631 61.5098C14.3317 61.1125 13.9723 60.7119 13.6045 60.3154L12.4961 59.1445L12.4951 59.1436L11.5068 58.1045C9.23224 55.6711 7.25 53.1562 7.25 50C7.25 46.8439 9.2329 44.3263 11.5068 41.8955L12.4941 40.8564L12.4961 40.8555C13.2267 40.0919 14.0004 39.284 14.6631 38.4893C15.3186 37.703 15.9216 36.8641 16.2676 36.0264L16.2666 36.0254C16.5933 35.2386 16.745 34.2639 16.8252 33.2939C16.9064 32.3106 16.922 31.2354 16.9375 30.2197C17.0177 26.307 17.1001 22.439 19.7695 19.7695C22.1054 17.4336 25.3625 17.0631 28.7549 16.9668L30.2148 16.9375C31.2319 16.922 32.311 16.9066 33.2969 16.8252C34.268 16.745 35.2456 16.5949 36.0303 16.2666L36.0293 16.2656C36.8682 15.9193 37.7056 15.3177 38.4902 14.6631C38.8875 14.3317 39.2881 13.9723 39.6846 13.6045L40.8555 12.4961L40.8564 12.4951C43.624 9.8397 46.3929 7.25 50 7.25ZM67.752 40.625C67.752 40.8345 67.7207 41.0424 67.6602 41.2422L67.5898 41.4385C67.5097 41.6318 67.4018 41.8124 67.2695 41.9736L67.1289 42.1289L45.2539 64.0039C45.106 64.152 44.9368 64.2775 44.7529 64.376L44.5635 64.4658C44.3056 64.5727 44.0291 64.6279 43.75 64.6279C43.4709 64.6279 43.1944 64.5727 42.9365 64.4658L42.7471 64.376C42.5632 64.2775 42.394 64.152 42.2461 64.0039L32.8711 54.6289L32.7305 54.4736C32.5982 54.3124 32.4902 54.1318 32.4102 53.9385L32.3398 53.7422C32.2995 53.6091 32.2725 53.4724 32.2588 53.334L32.248 53.125C32.248 52.9155 32.2793 52.7076 32.3398 52.5078L32.4102 52.3115C32.4902 52.1182 32.5982 51.9376 32.7305 51.7764L32.8711 51.6211C33.2699 51.2223 33.811 50.998 34.375 50.998C34.6542 50.998 34.9305 51.0534 35.1885 51.1602C35.3818 51.2403 35.5624 51.3482 35.7236 51.4805L35.8789 51.6211L43.043 58.7891L43.75 59.4961L44.457 58.7891L64.1211 39.1211C64.2692 38.973 64.438 38.8474 64.6221 38.749L64.8115 38.6602C65.0695 38.5534 65.3458 38.498 65.625 38.498C65.9042 38.498 66.1805 38.5534 66.4385 38.6602C66.6965 38.767 66.9314 38.9236 67.1289 39.1211C67.3264 39.3186 67.483 39.5535 67.5898 39.8115C67.6966 40.0695 67.752 40.3458 67.752 40.625ZM69.752 40.625C69.752 40.0831 69.6449 39.5466 69.4375 39.0459L69.3555 38.8604C69.1531 38.4326 68.8783 38.0424 68.543 37.707L68.3965 37.5674C68.0457 37.2495 67.6424 36.994 67.2041 36.8125L67.0146 36.7393C66.5692 36.5799 66.0991 36.498 65.625 36.498C65.1509 36.498 64.6808 36.5799 64.2354 36.7393L64.0459 36.8125C63.6076 36.994 63.2043 37.2495 62.8535 37.5674L62.707 37.707L43.75 56.667L37.293 50.207L37.1465 50.0674C36.7957 49.7495 36.3924 49.494 35.9541 49.3125L35.7646 49.2393C35.3192 49.0799 34.8491 48.998 34.375 48.998C33.3491 48.998 32.3624 49.3802 31.6055 50.0654L31.457 50.207C31.1217 50.5424 30.8469 50.9326 30.6445 51.3604L30.5625 51.5459C30.3551 52.0466 30.248 52.5831 30.248 53.125C30.248 53.6669 30.3551 54.2034 30.5625 54.7041C30.744 55.1424 30.9995 55.5457 31.3174 55.8965L31.457 56.043L40.832 65.418C41.215 65.8012 41.6694 66.106 42.1699 66.3135C42.6707 66.5211 43.2079 66.6279 43.75 66.6279C44.2245 66.6279 44.6948 66.5454 45.1406 66.3857L45.3301 66.3135C45.7682 66.1318 46.171 65.8756 46.5215 65.5576L46.668 65.418L68.543 43.543C68.8783 43.2076 69.1531 42.8174 69.3555 42.3896L69.4375 42.2041C69.6189 41.7661 69.7238 41.3006 69.7471 40.8281L69.752 40.625Z" stroke="#21FF91" stroke-width="2"/>
</svg>
