<svg width="14" height="14" viewBox="0 0 14 14" fill="none" xmlns="http://www.w3.org/2000/svg">
<g clip-path="url(#clip0_2556_15042)">
<path d="M13.1242 9.625C12.8617 9.625 12.6211 9.84375 12.6211 10.1281V12.075C12.6211 12.2719 12.468 12.425 12.2711 12.425H1.72734C1.53047 12.425 1.37734 12.2719 1.37734 12.075V10.1281C1.37734 9.84375 1.13672 9.625 0.874219 9.625C0.611719 9.625 0.371094 9.84375 0.371094 10.1281V12.075C0.371094 12.8187 0.961719 13.4094 1.70547 13.4094H12.2711C13.0148 13.4094 13.6055 12.8187 13.6055 12.075V10.1281C13.6273 9.84375 13.3867 9.625 13.1242 9.625Z" fill="#6235FF"/>
<path d="M4.17578 4.52891L6.51641 2.25391V9.82266C6.51641 10.0852 6.73516 10.3258 7.01953 10.3258C7.28203 10.3258 7.52266 10.107 7.52266 9.82266V2.25391L9.86328 4.52891C9.95078 4.61641 10.082 4.66016 10.2133 4.66016C10.3445 4.66016 10.4758 4.61641 10.5633 4.50703C10.7602 4.31016 10.7383 4.00391 10.5633 3.80703L7.34766 0.744531C7.15078 0.569531 6.84453 0.569531 6.66953 0.744531L3.47578 3.82891C3.27891 4.02578 3.27891 4.33203 3.47578 4.52891C3.67266 4.70391 3.97891 4.72578 4.17578 4.52891Z" fill="#6235FF"/>
</g>
<defs>
<clipPath id="clip0_2556_15042">
<rect width="14" height="14" fill="white"/>
</clipPath>
</defs>
</svg>
