<svg width="20" height="16" viewBox="0 0 20 16" fill="none" xmlns="http://www.w3.org/2000/svg">
<path d="M2.73047 10.7454C2.02214 9.82536 1.66797 9.36453 1.66797 7.9987C1.66797 6.63203 2.02214 6.17286 2.73047 5.25203C4.14464 3.41536 6.5163 1.33203 10.0013 1.33203C13.4863 1.33203 15.858 3.41536 17.2721 5.25203C17.9805 6.1737 18.3346 6.63286 18.3346 7.9987C18.3346 9.36536 17.9805 9.82453 17.2721 10.7454C15.858 12.582 13.4863 14.6654 10.0013 14.6654C6.5163 14.6654 4.14464 12.582 2.73047 10.7454Z" stroke="#787C82" stroke-width="1.5"/>
<path d="M12.5 8C12.5 8.66304 12.2366 9.29893 11.7678 9.76777C11.2989 10.2366 10.663 10.5 10 10.5C9.33696 10.5 8.70107 10.2366 8.23223 9.76777C7.76339 9.29893 7.5 8.66304 7.5 8C7.5 7.33696 7.76339 6.70107 8.23223 6.23223C8.70107 5.76339 9.33696 5.5 10 5.5C10.663 5.5 11.2989 5.76339 11.7678 6.23223C12.2366 6.70107 12.5 7.33696 12.5 8Z" stroke="#787C82" stroke-width="1.5"/>
</svg>
