<svg width="16" height="17" viewBox="0 0 16 17" fill="none" xmlns="http://www.w3.org/2000/svg">
<g clip-path="url(#clip0_2393_78021)">
<path fill-rule="evenodd" clip-rule="evenodd" d="M8.13055 2.8979C7.25757 2.87891 6.39097 3.05068 5.59125 3.40122C4.79152 3.75177 4.07795 4.27264 3.50034 4.92748C2.92273 5.58231 2.495 6.35533 2.24703 7.19256C1.99906 8.02979 1.93681 8.91105 2.06464 9.77483C2.19246 10.6386 2.50728 11.4641 2.98711 12.1936C3.46693 12.9231 4.10021 13.5391 4.84272 13.9986C5.58523 14.4581 6.41908 14.75 7.28606 14.8539C8.15303 14.9578 9.03224 14.8712 9.8623 14.6002C10.0041 14.5538 10.1217 14.453 10.1892 14.32C10.2568 14.1869 10.2686 14.0325 10.2223 13.8907C10.1759 13.7488 10.0752 13.6312 9.9421 13.5637C9.80905 13.4962 9.65462 13.4843 9.5128 13.5307C8.61077 13.8252 7.6424 13.8501 6.72644 13.6023C5.81048 13.3545 4.98675 12.8447 4.35627 12.1356C3.7258 11.4264 3.31598 10.5487 3.17709 9.61003C3.0382 8.67135 3.17627 7.71255 3.57436 6.85121C3.97246 5.98987 4.61327 5.26342 5.41822 4.76098C6.22317 4.25853 7.15725 4.00192 8.10592 4.02261C9.05458 4.04331 9.97659 4.34042 10.7589 4.87749C11.5411 5.41457 12.1496 6.16827 12.5098 7.04615C12.5664 7.1842 12.6755 7.29411 12.8131 7.35171C12.8813 7.38023 12.9544 7.39504 13.0282 7.39531C13.1021 7.39558 13.1753 7.3813 13.2437 7.35328C13.312 7.32526 13.3742 7.28405 13.4266 7.232C13.479 7.17996 13.5207 7.1181 13.5492 7.04995C13.5777 6.9818 13.5926 6.90871 13.5928 6.83483C13.5931 6.76096 13.5788 6.68776 13.5508 6.61941C13.1076 5.53887 12.3586 4.61119 11.3958 3.95013C10.433 3.28907 9.29817 2.92338 8.13055 2.8979ZM8.5618 5.7089C8.5618 5.55972 8.50253 5.41665 8.39704 5.31116C8.29155 5.20567 8.14848 5.1464 7.9993 5.1464C7.85011 5.1464 7.70704 5.20567 7.60155 5.31116C7.49606 5.41665 7.4368 5.55972 7.4368 5.7089V8.66391L5.9113 10.1887C5.85603 10.2402 5.8117 10.3023 5.78096 10.3713C5.75022 10.4403 5.73368 10.5147 5.73235 10.5903C5.73102 10.6658 5.74491 10.7408 5.7732 10.8109C5.80149 10.8809 5.8436 10.9445 5.89702 10.9979C5.95043 11.0513 6.01406 11.0935 6.0841 11.1217C6.15414 11.15 6.22916 11.1639 6.30469 11.1626C6.38021 11.1613 6.4547 11.1447 6.5237 11.114C6.5927 11.0832 6.6548 11.0389 6.7063 10.9837L8.3968 9.2939L8.5618 9.12891V5.7089ZM13.2493 14.1464C13.2493 14.3453 13.1703 14.5361 13.0296 14.6767C12.889 14.8174 12.6982 14.8964 12.4993 14.8964C12.3004 14.8964 12.1096 14.8174 11.969 14.6767C11.8283 14.5361 11.7493 14.3453 11.7493 14.1464C11.7493 13.9475 11.8283 13.7567 11.969 13.6161C12.1096 13.4754 12.3004 13.3964 12.4993 13.3964C12.6982 13.3964 12.889 13.4754 13.0296 13.6161C13.1703 13.7567 13.2493 13.9475 13.2493 14.1464ZM13.0618 9.45891C13.0618 9.30972 13.0025 9.16665 12.897 9.06116C12.7916 8.95567 12.6485 8.89641 12.4993 8.89641C12.3501 8.89641 12.207 8.95567 12.1015 9.06116C11.9961 9.16665 11.9368 9.30972 11.9368 9.45891V12.0839C11.9368 12.2331 11.9961 12.3762 12.1015 12.4817C12.207 12.5871 12.3501 12.6464 12.4993 12.6464C12.6485 12.6464 12.7916 12.5871 12.897 12.4817C13.0025 12.3762 13.0618 12.2331 13.0618 12.0839V9.45891Z" fill="#DC2626"/>
</g>
<defs>
<clipPath id="clip0_2393_78021">
<rect width="12" height="12" fill="white" transform="translate(2 2.89636)"/>
</clipPath>
</defs>
</svg>
