<svg width="24" height="24" viewBox="0 0 24 24" fill="none" xmlns="http://www.w3.org/2000/svg">
<path d="M18.6417 2.57141C19.3806 2.57141 20.0891 2.86491 20.6115 3.38733C21.134 3.90975 21.4275 4.61831 21.4275 5.35713V18.6428C21.4275 19.3817 21.134 20.0902 20.6115 20.6126C20.0891 21.1351 19.3806 21.4286 18.6417 21.4286H5.35603C4.61721 21.4286 3.90865 21.1351 3.38623 20.6126C2.86381 20.0902 2.57031 19.3817 2.57031 18.6428V5.35713C2.57031 4.61831 2.86381 3.90975 3.38623 3.38733C3.90865 2.86491 4.61721 2.57141 5.35603 2.57141H18.6417ZM20.1417 8.14541H3.85603V18.6428C3.85603 19.4708 4.52803 20.1428 5.35603 20.1428H18.6417C19.0396 20.1428 19.4211 19.9848 19.7024 19.7035C19.9837 19.4222 20.1417 19.0407 20.1417 18.6428V8.14541ZM7.49803 15.0008C7.78219 15.0008 8.05471 15.1137 8.25564 15.3147C8.45657 15.5156 8.56946 15.7881 8.56946 16.0723C8.56946 16.3564 8.45657 16.629 8.25564 16.8299C8.05471 17.0308 7.78219 17.1437 7.49803 17.1437C7.21387 17.1437 6.94134 17.0308 6.74041 16.8299C6.53948 16.629 6.4266 16.3564 6.4266 16.0723C6.4266 15.7881 6.53948 15.5156 6.74041 15.3147C6.94134 15.1137 7.21387 15.0008 7.49803 15.0008ZM12.0015 15.0008C12.2856 15.0008 12.5581 15.1137 12.7591 15.3147C12.96 15.5156 13.0729 15.7881 13.0729 16.0723C13.0729 16.3564 12.96 16.629 12.7591 16.8299C12.5581 17.0308 12.2856 17.1437 12.0015 17.1437C11.7173 17.1437 11.4448 17.0308 11.2438 16.8299C11.0429 16.629 10.93 16.3564 10.93 16.0723C10.93 15.7881 11.0429 15.5156 11.2438 15.3147C11.4448 15.1137 11.7173 15.0008 12.0015 15.0008ZM7.49803 10.7151C7.78219 10.7151 8.05471 10.828 8.25564 11.0289C8.45657 11.2299 8.56946 11.5024 8.56946 11.7866C8.56946 12.0707 8.45657 12.3432 8.25564 12.5442C8.05471 12.7451 7.78219 12.858 7.49803 12.858C7.21387 12.858 6.94134 12.7451 6.74041 12.5442C6.53948 12.3432 6.4266 12.0707 6.4266 11.7866C6.4266 11.5024 6.53948 11.2299 6.74041 11.0289C6.94134 10.828 7.21387 10.7151 7.49803 10.7151ZM12.0015 10.7151C12.2856 10.7151 12.5581 10.828 12.7591 11.0289C12.96 11.2299 13.0729 11.5024 13.0729 11.7866C13.0729 12.0707 12.96 12.3432 12.7591 12.5442C12.5581 12.7451 12.2856 12.858 12.0015 12.858C11.7173 12.858 11.4448 12.7451 11.2438 12.5442C11.0429 12.3432 10.93 12.0707 10.93 11.7866C10.93 11.5024 11.0429 11.2299 11.2438 11.0289C11.4448 10.828 11.7173 10.7151 12.0015 10.7151ZM16.5057 10.7151C16.7899 10.7151 17.0624 10.828 17.2634 11.0289C17.4643 11.2299 17.5772 11.5024 17.5772 11.7866C17.5772 12.0707 17.4643 12.3432 17.2634 12.5442C17.0624 12.7451 16.7899 12.858 16.5057 12.858C16.2216 12.858 15.9491 12.7451 15.7481 12.5442C15.5472 12.3432 15.4343 12.0707 15.4343 11.7866C15.4343 11.5024 15.5472 11.2299 15.7481 11.0289C15.9491 10.828 16.2216 10.7151 16.5057 10.7151ZM18.6417 3.85713H5.35603C4.9582 3.85713 4.57667 4.01516 4.29537 4.29647C4.01406 4.57777 3.85603 4.9593 3.85603 5.35713V6.8597H20.1417V5.35713C20.1417 4.9593 19.9837 4.57777 19.7024 4.29647C19.4211 4.01516 19.0396 3.85713 18.6417 3.85713Z" fill="#333333"/>
<path d="M18.6417 2.57141C19.3806 2.57141 20.0891 2.86491 20.6115 3.38733C21.134 3.90975 21.4275 4.61831 21.4275 5.35713V18.6428C21.4275 19.3817 21.134 20.0902 20.6115 20.6126C20.0891 21.1351 19.3806 21.4286 18.6417 21.4286H5.35603C4.61721 21.4286 3.90865 21.1351 3.38623 20.6126C2.86381 20.0902 2.57031 19.3817 2.57031 18.6428V5.35713C2.57031 4.61831 2.86381 3.90975 3.38623 3.38733C3.90865 2.86491 4.61721 2.57141 5.35603 2.57141H18.6417ZM20.1417 8.14541H3.85603V18.6428C3.85603 19.4708 4.52803 20.1428 5.35603 20.1428H18.6417C19.0396 20.1428 19.4211 19.9848 19.7024 19.7035C19.9837 19.4222 20.1417 19.0407 20.1417 18.6428V8.14541ZM7.49803 15.0008C7.78219 15.0008 8.05471 15.1137 8.25564 15.3147C8.45657 15.5156 8.56946 15.7881 8.56946 16.0723C8.56946 16.3564 8.45657 16.629 8.25564 16.8299C8.05471 17.0308 7.78219 17.1437 7.49803 17.1437C7.21387 17.1437 6.94134 17.0308 6.74041 16.8299C6.53948 16.629 6.4266 16.3564 6.4266 16.0723C6.4266 15.7881 6.53948 15.5156 6.74041 15.3147C6.94134 15.1137 7.21387 15.0008 7.49803 15.0008ZM12.0015 15.0008C12.2856 15.0008 12.5581 15.1137 12.7591 15.3147C12.96 15.5156 13.0729 15.7881 13.0729 16.0723C13.0729 16.3564 12.96 16.629 12.7591 16.8299C12.5581 17.0308 12.2856 17.1437 12.0015 17.1437C11.7173 17.1437 11.4448 17.0308 11.2438 16.8299C11.0429 16.629 10.93 16.3564 10.93 16.0723C10.93 15.7881 11.0429 15.5156 11.2438 15.3147C11.4448 15.1137 11.7173 15.0008 12.0015 15.0008ZM7.49803 10.7151C7.78219 10.7151 8.05471 10.828 8.25564 11.0289C8.45657 11.2299 8.56946 11.5024 8.56946 11.7866C8.56946 12.0707 8.45657 12.3432 8.25564 12.5442C8.05471 12.7451 7.78219 12.858 7.49803 12.858C7.21387 12.858 6.94134 12.7451 6.74041 12.5442C6.53948 12.3432 6.4266 12.0707 6.4266 11.7866C6.4266 11.5024 6.53948 11.2299 6.74041 11.0289C6.94134 10.828 7.21387 10.7151 7.49803 10.7151ZM12.0015 10.7151C12.2856 10.7151 12.5581 10.828 12.7591 11.0289C12.96 11.2299 13.0729 11.5024 13.0729 11.7866C13.0729 12.0707 12.96 12.3432 12.7591 12.5442C12.5581 12.7451 12.2856 12.858 12.0015 12.858C11.7173 12.858 11.4448 12.7451 11.2438 12.5442C11.0429 12.3432 10.93 12.0707 10.93 11.7866C10.93 11.5024 11.0429 11.2299 11.2438 11.0289C11.4448 10.828 11.7173 10.7151 12.0015 10.7151ZM16.5057 10.7151C16.7899 10.7151 17.0624 10.828 17.2634 11.0289C17.4643 11.2299 17.5772 11.5024 17.5772 11.7866C17.5772 12.0707 17.4643 12.3432 17.2634 12.5442C17.0624 12.7451 16.7899 12.858 16.5057 12.858C16.2216 12.858 15.9491 12.7451 15.7481 12.5442C15.5472 12.3432 15.4343 12.0707 15.4343 11.7866C15.4343 11.5024 15.5472 11.2299 15.7481 11.0289C15.9491 10.828 16.2216 10.7151 16.5057 10.7151ZM18.6417 3.85713H5.35603C4.9582 3.85713 4.57667 4.01516 4.29537 4.29647C4.01406 4.57777 3.85603 4.9593 3.85603 5.35713V6.8597H20.1417V5.35713C20.1417 4.9593 19.9837 4.57777 19.7024 4.29647C19.4211 4.01516 19.0396 3.85713 18.6417 3.85713Z" fill="white" fill-opacity="0.4"/>
</svg>
