<svg width="14" height="15" viewBox="0 0 14 15" fill="none" xmlns="http://www.w3.org/2000/svg">
<g clip-path="url(#clip0_2556_4934)">
<path d="M12.5992 12.1148L12.1617 11.4367C12.0742 11.3055 12.0305 11.1742 12.0305 11.0211V6.47109C12.0305 5.18047 11.4836 3.97734 10.4773 3.08047C9.66797 2.35859 8.61797 1.89922 7.50234 1.81172V1.37422C7.50234 1.11172 7.28359 0.871094 6.99922 0.871094C6.73672 0.871094 6.49609 1.08984 6.49609 1.37422V1.78984C6.45234 1.78984 6.40859 1.78984 6.36484 1.81172C3.82734 2.09609 1.92422 4.13047 1.92422 6.55859V11.0211C1.90234 11.2398 1.85859 11.3492 1.81484 11.4148L1.39922 12.1148C1.26797 12.3336 1.26797 12.5961 1.39922 12.8148C1.53047 13.0117 1.74922 13.143 1.98984 13.143H6.51797V13.6242C6.51797 13.8867 6.73672 14.1273 7.02109 14.1273C7.28359 14.1273 7.52422 13.9086 7.52422 13.6242V13.143H12.0305C12.2711 13.143 12.4898 13.0117 12.6211 12.8148C12.7523 12.5961 12.7523 12.3336 12.5992 12.1148ZM2.51484 12.1586L2.66797 11.8961C2.79922 11.6773 2.86484 11.4148 2.90859 11.1086V6.55859C2.90859 4.63359 4.43984 3.01484 6.47422 2.79609C7.72109 2.66484 8.94609 3.03672 9.84297 3.82422C10.6305 4.52422 11.068 5.46484 11.068 6.47109V11.0211C11.068 11.3492 11.1555 11.6555 11.3523 11.9617L11.4836 12.1586H2.51484Z" fill="#FFD21E"/>
</g>
<defs>
<clipPath id="clip0_2556_4934">
<rect width="14" height="14" fill="white" transform="translate(0 0.5)"/>
</clipPath>
</defs>
</svg>
