<svg width="24" height="24" viewBox="0 0 24 24" fill="none" xmlns="http://www.w3.org/2000/svg">
<path d="M20.75 19.25H19.0625V13.0938C19.0625 12.0938 18.25 11.3125 17.2812 11.3125H15.4687C14.4687 11.3125 13.6875 12.125 13.6875 13.0938V19.25H11.8125V8.375C11.8125 7.375 11 6.59375 10.0312 6.59375H8.21875C7.21875 6.59375 6.4375 7.40625 6.4375 8.375V19.25H3.96875V4.03125C3.96875 3.65625 3.65625 3.3125 3.25 3.3125C2.84375 3.3125 2.53125 3.625 2.53125 4.03125V19.3125C2.53125 20.0312 3.125 20.6562 3.875 20.6562H20.75C21.125 20.6562 21.4687 20.3438 21.4687 19.9375C21.4687 19.5312 21.125 19.25 20.75 19.25ZM7.84375 19.25V8.375C7.84375 8.15625 8.03125 8 8.21875 8H10.0312C10.25 8 10.4062 8.1875 10.4062 8.375V19.25H7.84375ZM15.0937 19.25V13.0938C15.0937 12.875 15.2812 12.7188 15.4687 12.7188H17.2812C17.5 12.7188 17.6562 12.9062 17.6562 13.0938V19.25H15.0937Z" fill="#333333"/>
<path d="M20.75 19.25H19.0625V13.0938C19.0625 12.0938 18.25 11.3125 17.2812 11.3125H15.4687C14.4687 11.3125 13.6875 12.125 13.6875 13.0938V19.25H11.8125V8.375C11.8125 7.375 11 6.59375 10.0312 6.59375H8.21875C7.21875 6.59375 6.4375 7.40625 6.4375 8.375V19.25H3.96875V4.03125C3.96875 3.65625 3.65625 3.3125 3.25 3.3125C2.84375 3.3125 2.53125 3.625 2.53125 4.03125V19.3125C2.53125 20.0312 3.125 20.6562 3.875 20.6562H20.75C21.125 20.6562 21.4687 20.3438 21.4687 19.9375C21.4687 19.5312 21.125 19.25 20.75 19.25ZM7.84375 19.25V8.375C7.84375 8.15625 8.03125 8 8.21875 8H10.0312C10.25 8 10.4062 8.1875 10.4062 8.375V19.25H7.84375ZM15.0937 19.25V13.0938C15.0937 12.875 15.2812 12.7188 15.4687 12.7188H17.2812C17.5 12.7188 17.6562 12.9062 17.6562 13.0938V19.25H15.0937Z" fill="white" fill-opacity="0.2"/>
</svg>
