<svg width="24" height="24" viewBox="0 0 24 24" fill="none" xmlns="http://www.w3.org/2000/svg">
<path d="M8.5731 9.71429H14.2874M8.5731 12H15.4302M8.5731 14.2857H12.0017M18.8588 17.7143V6.28571C18.8588 5.67951 18.618 5.09812 18.1893 4.66947C17.7607 4.24082 17.1793 4 16.5731 4H7.43025C6.82404 4 6.24266 4.24082 5.814 4.66947C5.38535 5.09812 5.14453 5.67951 5.14453 6.28571V17.7143C5.14453 18.3205 5.38535 18.9019 5.814 19.3305C6.24266 19.7592 6.82404 20 7.43025 20H16.5731C17.1793 20 17.7607 19.7592 18.1893 19.3305C18.618 18.9019 18.8588 18.3205 18.8588 17.7143Z" stroke="#333333" stroke-width="1.09" stroke-linecap="round" stroke-linejoin="round"/>
<path d="M8.5731 9.71429H14.2874M8.5731 12H15.4302M8.5731 14.2857H12.0017M18.8588 17.7143V6.28571C18.8588 5.67951 18.618 5.09812 18.1893 4.66947C17.7607 4.24082 17.1793 4 16.5731 4H7.43025C6.82404 4 6.24266 4.24082 5.814 4.66947C5.38535 5.09812 5.14453 5.67951 5.14453 6.28571V17.7143C5.14453 18.3205 5.38535 18.9019 5.814 19.3305C6.24266 19.7592 6.82404 20 7.43025 20H16.5731C17.1793 20 17.7607 19.7592 18.1893 19.3305C18.618 18.9019 18.8588 18.3205 18.8588 17.7143Z" stroke="white" stroke-opacity="0.2" stroke-width="1.09" stroke-linecap="round" stroke-linejoin="round"/>
</svg>
