<svg width="49" height="46" viewBox="0 0 49 46" fill="none" xmlns="http://www.w3.org/2000/svg">
<g opacity="0.26">
<path d="M24.916 0.496094C37.9662 0.496094 48.5008 10.5268 48.501 22.8457C48.501 35.1648 37.9664 45.1963 24.916 45.1963C11.8658 45.1961 1.33203 35.1647 1.33203 22.8457C1.33225 10.5269 11.8659 0.496244 24.916 0.496094Z" stroke="#FF9F43"/>
<path d="M24.916 0.496094C37.9662 0.496094 48.5008 10.5268 48.501 22.8457C48.501 35.1648 37.9664 45.1963 24.916 45.1963C11.8658 45.1961 1.33203 35.1647 1.33203 22.8457C1.33225 10.5269 11.8659 0.496244 24.916 0.496094Z" stroke="white" stroke-opacity="0.2"/>
</g>
<path d="M20.5 19.8571H28M20.5 23H29.5M20.5 26.1429H25M34 30.8571V15.1429C34 14.3093 33.6839 13.5099 33.1213 12.9205C32.5587 12.3311 31.7956 12 31 12H19C18.2044 12 17.4413 12.3311 16.8787 12.9205C16.3161 13.5099 16 14.3093 16 15.1429V30.8571C16 31.6907 16.3161 32.4901 16.8787 33.0795C17.4413 33.6689 18.2044 34 19 34H31C31.7956 34 32.5587 33.6689 33.1213 33.0795C33.6839 32.4901 34 31.6907 34 30.8571Z" stroke="#FF9F43" stroke-linecap="round" stroke-linejoin="round"/>
<path d="M20.5 19.8571H28M20.5 23H29.5M20.5 26.1429H25M34 30.8571V15.1429C34 14.3093 33.6839 13.5099 33.1213 12.9205C32.5587 12.3311 31.7956 12 31 12H19C18.2044 12 17.4413 12.3311 16.8787 12.9205C16.3161 13.5099 16 14.3093 16 15.1429V30.8571C16 31.6907 16.3161 32.4901 16.8787 33.0795C17.4413 33.6689 18.2044 34 19 34H31C31.7956 34 32.5587 33.6689 33.1213 33.0795C33.6839 32.4901 34 31.6907 34 30.8571Z" stroke="white" stroke-opacity="0.2" stroke-linecap="round" stroke-linejoin="round"/>
</svg>
