<svg width="12" height="11" viewBox="0 0 12 11" fill="none" xmlns="http://www.w3.org/2000/svg">
<path d="M5.81854 0.448211C5.87289 0.415641 5.93507 0.398437 5.99844 0.398438C6.0618 0.398437 6.12398 0.415641 6.17834 0.448211L10.9187 3.29231C11.1261 3.41676 11.2978 3.59282 11.4169 3.80333C11.536 4.01385 11.5986 4.25163 11.5984 4.49351V9.14851C11.5984 9.61264 11.4141 10.0578 11.0859 10.3859C10.7577 10.7141 10.3126 10.8985 9.84844 10.8985H2.14844C1.68431 10.8985 1.23919 10.7141 0.911001 10.3859C0.582812 10.0578 0.398438 9.61264 0.398438 9.14851V4.49351C0.398314 4.25163 0.460861 4.01385 0.57998 3.80333C0.6991 3.59282 0.870728 3.41676 1.07814 3.29231L5.81854 0.448211ZM5.99844 1.15661L1.43864 3.89291L1.42884 3.89851L5.99844 6.64041L10.568 3.89851L10.5589 3.89291L5.99844 1.15661ZM10.8984 4.51661L6.17834 7.34881C6.12398 7.38138 6.0618 7.39858 5.99844 7.39858C5.93507 7.39858 5.87289 7.38138 5.81854 7.34881L1.09844 4.51661V9.14851C1.09844 9.42699 1.20906 9.69406 1.40598 9.89097C1.60289 10.0879 1.86996 10.1985 2.14844 10.1985H9.84844C10.1269 10.1985 10.394 10.0879 10.5909 9.89097C10.7878 9.69406 10.8984 9.42699 10.8984 9.14851V4.51661Z" fill="#FF9F43"/>
<path d="M5.81854 0.448211C5.87289 0.415641 5.93507 0.398437 5.99844 0.398438C6.0618 0.398437 6.12398 0.415641 6.17834 0.448211L10.9187 3.29231C11.1261 3.41676 11.2978 3.59282 11.4169 3.80333C11.536 4.01385 11.5986 4.25163 11.5984 4.49351V9.14851C11.5984 9.61264 11.4141 10.0578 11.0859 10.3859C10.7577 10.7141 10.3126 10.8985 9.84844 10.8985H2.14844C1.68431 10.8985 1.23919 10.7141 0.911001 10.3859C0.582812 10.0578 0.398438 9.61264 0.398438 9.14851V4.49351C0.398314 4.25163 0.460861 4.01385 0.57998 3.80333C0.6991 3.59282 0.870728 3.41676 1.07814 3.29231L5.81854 0.448211ZM5.99844 1.15661L1.43864 3.89291L1.42884 3.89851L5.99844 6.64041L10.568 3.89851L10.5589 3.89291L5.99844 1.15661ZM10.8984 4.51661L6.17834 7.34881C6.12398 7.38138 6.0618 7.39858 5.99844 7.39858C5.93507 7.39858 5.87289 7.38138 5.81854 7.34881L1.09844 4.51661V9.14851C1.09844 9.42699 1.20906 9.69406 1.40598 9.89097C1.60289 10.0879 1.86996 10.1985 2.14844 10.1985H9.84844C10.1269 10.1985 10.394 10.0879 10.5909 9.89097C10.7878 9.69406 10.8984 9.42699 10.8984 9.14851V4.51661Z" fill="white" fill-opacity="0.4"/>
</svg>
