<svg width="14" height="14" viewBox="0 0 14 14" fill="none" xmlns="http://www.w3.org/2000/svg">
<path d="M5.05156 8.96953C5.79531 8.96953 6.40781 8.35703 6.40781 7.63516C6.40781 6.89141 5.79531 6.30078 5.05156 6.30078C4.30781 6.30078 3.69531 6.91328 3.69531 7.63516C3.71719 8.37891 4.30781 8.96953 5.05156 8.96953ZM5.05156 7.26328C5.24844 7.26328 5.42344 7.41641 5.42344 7.61328C5.42344 7.81016 5.27031 7.96328 5.05156 7.96328C4.85469 7.96328 4.67969 7.81016 4.67969 7.61328C4.70156 7.43828 4.85469 7.26328 5.05156 7.26328Z" fill="#28C76F"/>
<path d="M10.7625 4.68047C11.5062 4.68047 12.1187 4.06797 12.1187 3.34609C12.1187 2.62422 11.5062 2.01172 10.7625 2.01172C10.0187 2.01172 9.40625 2.60234 9.40625 3.34609C9.40625 4.08984 10.0187 4.68047 10.7625 4.68047ZM10.7625 2.99609C10.9594 2.99609 11.1344 3.14922 11.1344 3.34609C11.1344 3.54297 10.9812 3.69609 10.7625 3.69609C10.5437 3.69609 10.3906 3.54297 10.3906 3.34609C10.3906 3.14922 10.5656 2.99609 10.7625 2.99609Z" fill="#28C76F"/>
<path d="M13.8461 1.575C13.8461 0.83125 13.2117 0.21875 12.468 0.21875H7.32734C6.58359 0.21875 5.97109 0.83125 5.97109 1.59688V4.725H1.63984C0.896094 4.725 0.261719 5.3375 0.261719 6.10313V12.4469C0.261719 13.1688 0.874219 13.7812 1.63984 13.7812H6.78047C7.52422 13.7812 8.15859 13.1687 8.15859 12.4031V9.29688H12.468C13.2117 9.29688 13.8461 8.68437 13.8461 7.91875V1.575ZM7.32734 1.20312H12.468C12.6867 1.20312 12.8617 1.37813 12.8617 1.59688V6.67188L11.1336 5.46875C10.9367 5.3375 10.6523 5.35938 10.4992 5.53437L9.53672 6.5625L8.07109 5.46875C8.02734 5.44688 7.98359 5.425 7.96172 5.40313C7.74297 5.03125 7.37109 4.79063 6.95547 4.725V1.575C6.93359 1.37812 7.10859 1.20312 7.32734 1.20312ZM1.63984 5.6875H6.78047C6.99922 5.6875 7.17422 5.8625 7.17422 6.08125V10.5L5.90547 9.60313C5.70859 9.47188 5.42422 9.49375 5.27109 9.66875L4.28672 10.7188L2.82109 9.625C2.64609 9.49375 2.38359 9.49375 2.20859 9.64687L1.24609 10.4563V6.08125C1.24609 5.8625 1.42109 5.6875 1.63984 5.6875ZM6.97734 12.7531L5.07422 11.3094L5.66484 10.6531L7.15234 11.6813V12.4031C7.15234 12.5563 7.08672 12.6875 6.97734 12.7531ZM1.24609 12.425V11.7469L2.53672 10.6531L5.40234 12.8187H1.63984C1.42109 12.7969 1.24609 12.6219 1.24609 12.425ZM8.13672 6.7375L10.2148 8.3125H8.13672V6.7375ZM12.468 8.3125H11.8555L10.3242 7.15313L10.9148 6.49688L12.8398 7.85313V7.91875C12.8617 8.1375 12.6867 8.3125 12.468 8.3125Z" fill="#28C76F"/>
</svg>
