<svg width="14" height="15" viewBox="0 0 14 15" fill="none" xmlns="http://www.w3.org/2000/svg">
<g clip-path="url(#clip0_2556_5367)">
<path d="M8.44141 5.33594H5.55391C5.29141 5.33594 5.05078 5.55469 5.05078 5.83906C5.05078 6.12344 5.26953 6.34219 5.55391 6.34219H8.44141C8.70391 6.34219 8.94453 6.12344 8.94453 5.83906C8.94453 5.55469 8.70391 5.33594 8.44141 5.33594Z" fill="#6235FF"/>
<path d="M10.8266 0.894531H3.17031C2.42656 0.894531 1.83594 1.48516 1.83594 2.22891V9.25078C1.83594 9.57891 1.96719 9.88516 2.20781 10.1039L6.14531 13.8227C6.36406 14.0414 6.64844 14.1508 6.95469 14.1508H10.8047C11.5484 14.1508 12.1391 13.5602 12.1391 12.8164V2.22891C12.1609 1.48516 11.5484 0.894531 10.8266 0.894531ZM3.54219 9.99453H6.10156C6.21094 9.99453 6.29844 10.082 6.29844 10.1695V12.5758L3.54219 9.99453ZM11.1766 12.7727C11.1766 12.9695 11.0234 13.1227 10.8266 13.1227H7.28281V10.1695C7.28281 9.53516 6.75781 9.01016 6.10156 9.01016H2.82031V2.22891C2.82031 2.03203 2.97344 1.87891 3.17031 1.87891H10.8047C11.0016 1.87891 11.1547 2.03203 11.1547 2.22891V12.7727H11.1766Z" fill="#6235FF"/>
</g>
<defs>
<clipPath id="clip0_2556_5367">
<rect width="14" height="14" fill="white" transform="translate(0 0.5)"/>
</clipPath>
</defs>
</svg>
