<svg width="24" height="24" viewBox="0 0 24 24" fill="none" xmlns="http://www.w3.org/2000/svg">
<path d="M7.07677 12.0004V8.76362C7.08639 8.12738 7.22145 7.4993 7.47422 6.91535C7.72699 6.3314 8.0925 5.80306 8.54981 5.36061C9.00712 4.91817 9.54724 4.5703 10.1392 4.33696C10.7312 4.10361 11.3634 3.98937 11.9996 4.00078C12.6358 3.98937 13.268 4.10361 13.86 4.33696C14.452 4.5703 14.9921 4.91817 15.4494 5.36061C15.9067 5.80306 16.2722 6.3314 16.525 6.91535C16.7778 7.4993 16.9128 8.12738 16.9225 8.76362V12.0004M14.461 18.4616C15.1138 18.4616 15.7399 18.2023 16.2015 17.7407C16.6631 17.2791 16.9225 16.653 16.9225 16.0002V13.2311M14.461 18.4616C14.461 18.8696 14.299 19.2609 14.0104 19.5494C13.7219 19.8379 13.3306 20 12.9226 20H11.0766C10.6686 20 10.2773 19.8379 9.98878 19.5494C9.70027 19.2609 9.53819 18.8696 9.53819 18.4616C9.53819 18.0536 9.70027 17.6623 9.98878 17.3738C10.2773 17.0853 10.6686 16.9232 11.0766 16.9232H12.9226C13.3306 16.9232 13.7219 17.0853 14.0104 17.3738C14.299 17.6623 14.461 18.0536 14.461 18.4616ZM5.23071 10.1543H6.46142C6.62462 10.1543 6.78114 10.2192 6.89654 10.3346C7.01194 10.45 7.07677 10.6065 7.07677 10.7697V14.4618C7.07677 14.625 7.01194 14.7815 6.89654 14.8969C6.78114 15.0123 6.62462 15.0772 6.46142 15.0772H5.23071C4.90431 15.0772 4.59127 14.9475 4.36047 14.7167C4.12966 14.4859 4 14.1729 4 13.8465V11.385C4 11.0586 4.12966 10.7456 4.36047 10.5148C4.59127 10.284 4.90431 10.1543 5.23071 10.1543ZM18.7685 15.0772H17.5378C17.3746 15.0772 17.2181 15.0123 17.1027 14.8969C16.9873 14.7815 16.9225 14.625 16.9225 14.4618V10.7697C16.9225 10.6065 16.9873 10.45 17.1027 10.3346C17.2181 10.2192 17.3746 10.1543 17.5378 10.1543H18.7685C19.0949 10.1543 19.408 10.284 19.6388 10.5148C19.8696 10.7456 19.9992 11.0586 19.9992 11.385V13.8465C19.9992 14.1729 19.8696 14.4859 19.6388 14.7167C19.408 14.9475 19.0949 15.0772 18.7685 15.0772Z" stroke="#6F6B7D" stroke-width="1.5" stroke-linecap="round" stroke-linejoin="round"/>
</svg>
