<svg width="15" height="15" viewBox="0 0 15 15" fill="none" xmlns="http://www.w3.org/2000/svg">
<path d="M4.70134 6.89637H6.80262M6.80262 6.89637H8.90389M6.80262 6.89637V4.79509M6.80262 6.89637V8.99764M11.0052 11.0989L13.8069 13.9006M1.19922 6.89637C1.19922 8.38248 1.78957 9.80772 2.84042 10.8586C3.89126 11.9094 5.3165 12.4998 6.80262 12.4998C8.28873 12.4998 9.71397 11.9094 10.7648 10.8586C11.8157 9.80772 12.406 8.38248 12.406 6.89637C12.406 5.41025 11.8157 3.98501 10.7648 2.93417C9.71397 1.88332 8.28873 1.29297 6.80262 1.29297C5.3165 1.29297 3.89126 1.88332 2.84042 2.93417C1.78957 3.98501 1.19922 5.41025 1.19922 6.89637Z" stroke="#333333" stroke-width="1.05064" stroke-linecap="round" stroke-linejoin="round"/>
</svg>
